<svg width="132" height="41" viewBox="0 0 132 41" fill="none" xmlns="http://www.w3.org/2000/svg">
<circle cx="28.2524" cy="11.7023" r="2.34742" transform="rotate(45 28.2524 11.7023)" fill="#FCF1D3"/>
<circle cx="11.6537" cy="28.3011" r="2.34742" transform="rotate(45 11.6537 28.3011)" fill="#FCF1D3"/>
<circle cx="33.0175" cy="7.17206" r="1.76056" transform="rotate(45 33.0175 7.17206)" fill="#F6D580"/>
<circle cx="7.12341" cy="33.0662" r="1.76056" transform="rotate(135 7.12341 33.0662)" fill="#F6D580"/>
<circle cx="8.33332" cy="19.953" r="2.34742" transform="rotate(90 8.33332 19.953)" fill="#FCF1D3"/>
<circle cx="1.76057" cy="20.1191" r="1.76056" transform="rotate(-180 1.76057 20.1191)" fill="#F6D580"/>
<circle cx="28.3698" cy="28.2524" r="2.34742" transform="rotate(135 28.3698 28.2524)" fill="#FCF1D3"/>
<circle cx="11.7711" cy="11.6537" r="2.34742" transform="rotate(135 11.7711 11.6537)" fill="#FCF1D3"/>
<circle cx="32.9001" cy="33.0175" r="1.76056" transform="rotate(135 32.9001 33.0175)" fill="#F6D580"/>
<circle cx="7.00603" cy="7.12335" r="1.76056" transform="rotate(-135 7.00603 7.12335)" fill="#F6D580"/>
<circle cx="20.119" cy="31.8075" r="2.34742" transform="rotate(-180 20.119 31.8075)" fill="#FCF1D3"/>
<circle cx="20.119" cy="8.33337" r="2.34742" transform="rotate(-180 20.119 8.33337)" fill="#FCF1D3"/>
<circle cx="19.9531" cy="38.3803" r="1.76056" transform="rotate(-180 19.9531 38.3803)" fill="#F6D580"/>
<circle cx="19.9531" cy="1.76055" r="1.76056" transform="rotate(-90 19.9531 1.76055)" fill="#F6D580"/>
<path d="M47.7159 15.0909C47.6307 14.3712 47.285 13.8125 46.679 13.4148C46.0729 13.017 45.3295 12.8182 44.4489 12.8182C43.8049 12.8182 43.2415 12.9223 42.7585 13.1307C42.2803 13.339 41.9063 13.6255 41.6364 13.9901C41.3712 14.3546 41.2386 14.7689 41.2386 15.233C41.2386 15.6212 41.331 15.955 41.5156 16.2344C41.705 16.509 41.9465 16.7386 42.2401 16.9233C42.5336 17.1032 42.8414 17.2524 43.1634 17.3707C43.4853 17.4844 43.7812 17.5767 44.0511 17.6477L45.5284 18.0455C45.9072 18.1449 46.3286 18.2822 46.7926 18.4574C47.2614 18.6326 47.7088 18.8717 48.1349 19.1747C48.5658 19.473 48.9209 19.8565 49.2003 20.3253C49.4796 20.794 49.6193 21.3693 49.6193 22.0511C49.6193 22.8371 49.4134 23.5473 49.0014 24.1818C48.5942 24.8163 47.9976 25.3205 47.2116 25.6946C46.4304 26.0687 45.4811 26.2557 44.3636 26.2557C43.322 26.2557 42.42 26.0876 41.6577 25.7514C40.9001 25.4152 40.3035 24.9465 39.8679 24.3452C39.437 23.7438 39.1932 23.0455 39.1364 22.25H40.9545C41.0019 22.7992 41.1866 23.2538 41.5085 23.6136C41.8352 23.9687 42.2472 24.2339 42.7443 24.4091C43.2462 24.5795 43.786 24.6648 44.3636 24.6648C45.036 24.6648 45.6397 24.5559 46.1747 24.3381C46.7098 24.1155 47.1335 23.8078 47.446 23.4148C47.7585 23.017 47.9148 22.553 47.9148 22.0227C47.9148 21.5398 47.7798 21.1468 47.5099 20.8438C47.2401 20.5407 46.8849 20.2945 46.4446 20.1051C46.0043 19.9157 45.5284 19.75 45.017 19.608L43.2273 19.0966C42.0909 18.7699 41.1913 18.3035 40.5284 17.6974C39.8655 17.0914 39.5341 16.2983 39.5341 15.3182C39.5341 14.5038 39.7543 13.7936 40.1946 13.1875C40.6397 12.5767 41.2363 12.1032 41.9844 11.767C42.7372 11.4261 43.5777 11.2557 44.5057 11.2557C45.4432 11.2557 46.2765 11.4238 47.0057 11.7599C47.7348 12.0914 48.3125 12.5459 48.7386 13.1236C49.1695 13.7012 49.3968 14.357 49.4205 15.0909H47.7159ZM53.8505 22.0227L53.8221 19.9489H54.163L58.9357 15.0909H61.0096L55.9244 20.233H55.7823L53.8505 22.0227ZM52.288 26V11.4545H53.9641V26H52.288ZM59.2198 26L54.9585 20.6023L56.1516 19.4375L61.3505 26H59.2198ZM63.1669 26V15.0909H64.843V26H63.1669ZM64.0192 13.2727C63.6925 13.2727 63.4107 13.1615 63.174 12.9389C62.942 12.7164 62.826 12.4489 62.826 12.1364C62.826 11.8239 62.942 11.5563 63.174 11.3338C63.4107 11.1113 63.6925 11 64.0192 11C64.3459 11 64.6252 11.1113 64.8572 11.3338C65.094 11.5563 65.2124 11.8239 65.2124 12.1364C65.2124 12.4489 65.094 12.7164 64.8572 12.9389C64.6252 13.1615 64.3459 13.2727 64.0192 13.2727ZM69.5891 19.4375V26H67.913V15.0909H69.5323V16.7955H69.6744C69.93 16.2415 70.3183 15.7964 70.8391 15.4602C71.36 15.1193 72.0323 14.9489 72.8562 14.9489C73.5948 14.9489 74.2411 15.1004 74.7951 15.4034C75.3491 15.7017 75.7799 16.1562 76.0877 16.767C76.3955 17.3731 76.5494 18.1402 76.5494 19.0682V26H74.8732V19.1818C74.8732 18.3248 74.6507 17.6572 74.2056 17.179C73.7605 16.696 73.1497 16.4545 72.3732 16.4545C71.8382 16.4545 71.36 16.5705 70.9386 16.8026C70.5219 17.0346 70.1928 17.3731 69.9513 17.8182C69.7099 18.2633 69.5891 18.803 69.5891 19.4375ZM79.6122 26V15.0909H81.2315V16.7955H81.3736C81.6009 16.2131 81.9678 15.7609 82.4744 15.4389C82.9811 15.1122 83.5895 14.9489 84.2997 14.9489C85.0194 14.9489 85.6184 15.1122 86.0966 15.4389C86.5795 15.7609 86.956 16.2131 87.2259 16.7955H87.3395C87.6188 16.232 88.0379 15.7846 88.5966 15.4531C89.1553 15.117 89.8253 14.9489 90.6065 14.9489C91.5819 14.9489 92.3797 15.2543 93 15.8651C93.6203 16.4711 93.9304 17.4157 93.9304 18.6989V26H92.2543V18.6989C92.2543 17.8939 92.0341 17.3187 91.5938 16.973C91.1534 16.6274 90.6349 16.4545 90.0384 16.4545C89.2713 16.4545 88.6771 16.6866 88.2557 17.1506C87.8343 17.6098 87.6236 18.1922 87.6236 18.8977V26H85.919V18.5284C85.919 17.9081 85.7178 17.4086 85.3153 17.0298C84.9129 16.6463 84.3944 16.4545 83.7599 16.4545C83.3243 16.4545 82.9171 16.5705 82.5384 16.8026C82.1643 17.0346 81.8613 17.3565 81.6293 17.7685C81.402 18.1757 81.2884 18.6468 81.2884 19.1818V26H79.6122ZM100.205 26.2557C99.514 26.2557 98.8866 26.1255 98.3232 25.8651C97.7597 25.5999 97.3123 25.2188 96.9808 24.7216C96.6494 24.2197 96.4837 23.6136 96.4837 22.9034C96.4837 22.2784 96.6068 21.7718 96.853 21.3835C97.0992 20.9905 97.4283 20.6828 97.8402 20.4602C98.2521 20.2377 98.7067 20.072 99.2038 19.9631C99.7057 19.8494 100.21 19.7595 100.717 19.6932C101.379 19.608 101.917 19.544 102.329 19.5014C102.746 19.4541 103.049 19.3759 103.238 19.267C103.432 19.1581 103.529 18.9687 103.529 18.6989V18.642C103.529 17.9413 103.337 17.3968 102.954 17.0085C102.575 16.6203 102 16.4261 101.228 16.4261C100.428 16.4261 99.8004 16.6013 99.3459 16.9517C98.8913 17.3021 98.5717 17.6761 98.3871 18.0739L96.7962 17.5057C97.0803 16.8428 97.459 16.3267 97.9325 15.9574C98.4107 15.5833 98.9316 15.3229 99.495 15.1761C100.063 15.0246 100.622 14.9489 101.171 14.9489C101.522 14.9489 101.924 14.9915 102.379 15.0767C102.838 15.1572 103.281 15.3253 103.707 15.581C104.138 15.8366 104.495 16.2225 104.779 16.7386C105.063 17.2547 105.205 17.946 105.205 18.8125V26H103.529V24.5227H103.444C103.33 24.7595 103.141 25.0128 102.876 25.2827C102.611 25.5526 102.258 25.7822 101.817 25.9716C101.377 26.161 100.84 26.2557 100.205 26.2557ZM100.461 24.75C101.124 24.75 101.683 24.6198 102.137 24.3594C102.596 24.099 102.942 23.7628 103.174 23.3509C103.411 22.9389 103.529 22.5057 103.529 22.0511V20.517C103.458 20.6023 103.302 20.6804 103.06 20.7514C102.824 20.8177 102.549 20.8769 102.237 20.929C101.929 20.9763 101.628 21.0189 101.335 21.0568C101.046 21.09 100.811 21.1184 100.631 21.142C100.196 21.1989 99.7886 21.2912 99.4098 21.419C99.0357 21.5421 98.7327 21.7292 98.5007 21.9801C98.2734 22.2263 98.1598 22.5625 98.1598 22.9886C98.1598 23.571 98.3752 24.0114 98.8061 24.3097C99.2417 24.6032 99.7933 24.75 100.461 24.75ZM113.009 15.0909V16.5114H107.355V15.0909H113.009ZM109.003 12.4773H110.679V22.875C110.679 23.3485 110.748 23.7036 110.885 23.9403C111.027 24.1723 111.207 24.3286 111.425 24.4091C111.648 24.4848 111.882 24.5227 112.128 24.5227C112.313 24.5227 112.464 24.5133 112.583 24.4943C112.701 24.4706 112.796 24.4517 112.867 24.4375L113.208 25.9432C113.094 25.9858 112.935 26.0284 112.732 26.071C112.528 26.1184 112.27 26.142 111.958 26.142C111.484 26.142 111.02 26.0402 110.566 25.8366C110.116 25.633 109.742 25.3229 109.444 24.9062C109.15 24.4896 109.003 23.964 109.003 23.3295V12.4773ZM119.987 26.2273C118.936 26.2273 118.029 25.9953 117.267 25.5312C116.509 25.0625 115.924 24.4091 115.512 23.571C115.105 22.7282 114.902 21.7481 114.902 20.6307C114.902 19.5133 115.105 18.5284 115.512 17.6761C115.924 16.8191 116.497 16.1515 117.231 15.6733C117.97 15.1903 118.832 14.9489 119.816 14.9489C120.385 14.9489 120.946 15.0436 121.5 15.233C122.054 15.4223 122.558 15.7301 123.012 16.1562C123.467 16.5777 123.829 17.1364 124.099 17.8324C124.369 18.5284 124.504 19.3854 124.504 20.4034V21.1136H116.095V19.6648H122.799C122.799 19.0492 122.676 18.5 122.43 18.017C122.189 17.5341 121.843 17.1529 121.393 16.8736C120.948 16.5942 120.422 16.4545 119.816 16.4545C119.149 16.4545 118.571 16.6203 118.083 16.9517C117.6 17.2784 117.229 17.7045 116.968 18.2301C116.708 18.7557 116.578 19.3191 116.578 19.9205V20.8864C116.578 21.7102 116.72 22.4086 117.004 22.9815C117.293 23.5497 117.693 23.983 118.204 24.2812C118.716 24.5748 119.31 24.7216 119.987 24.7216C120.427 24.7216 120.825 24.66 121.18 24.5369C121.54 24.4091 121.85 24.2197 122.11 23.9688C122.371 23.7131 122.572 23.3958 122.714 23.017L124.333 23.4716C124.163 24.0208 123.877 24.5038 123.474 24.9205C123.072 25.3324 122.574 25.6544 121.983 25.8864C121.391 26.1136 120.725 26.2273 119.987 26.2273Z" fill="#343A40"/>
</svg>
