<svg width="200" height="200" viewBox="0 0 200 200" fill="none" xmlns="http://www.w3.org/2000/svg">
<path d="M116.666 108.333C109.722 108.333 103.819 105.903 98.958 101.042C94.0969 96.1806 91.6664 90.2778 91.6664 83.3333C91.6664 76.3889 94.0969 70.4861 98.958 65.625C103.819 60.7639 109.722 58.3333 116.666 58.3333C123.611 58.3333 129.514 60.7639 134.375 65.625C139.236 70.4861 141.666 76.3889 141.666 83.3333C141.666 90.2778 139.236 96.1806 134.375 101.042C129.514 105.903 123.611 108.333 116.666 108.333ZM58.333 133.333C53.7497 133.333 49.8247 131.7 46.558 128.433C43.2914 125.167 41.6608 121.244 41.6664 116.667V50C41.6664 45.4167 43.2997 41.4917 46.5664 38.225C49.833 34.9583 53.7552 33.3278 58.333 33.3333H175C179.583 33.3333 183.508 34.9667 186.775 38.2333C190.041 41.5 191.672 45.4222 191.666 50V116.667C191.666 121.25 190.033 125.175 186.766 128.442C183.5 131.708 179.577 133.339 175 133.333H58.333ZM74.9997 116.667H158.333C158.333 112.083 159.966 108.158 163.233 104.892C166.5 101.625 170.422 99.9944 175 100V66.6667C170.416 66.6667 166.491 65.0333 163.225 61.7667C159.958 58.5 158.327 54.5778 158.333 50H74.9997C74.9997 54.5833 73.3664 58.5083 70.0997 61.775C66.833 65.0417 62.9108 66.6722 58.333 66.6667V100C62.9164 100 66.8414 101.633 70.108 104.9C73.3747 108.167 75.0052 112.089 74.9997 116.667ZM166.666 166.667H24.9997C20.4164 166.667 16.4914 165.033 13.2247 161.767C9.95802 158.5 8.32747 154.578 8.33302 150V58.3333H24.9997V150H166.666V166.667Z" fill="#F6D580"/>
</svg>
