<svg width="200" height="200" viewBox="0 0 200 200" fill="none" xmlns="http://www.w3.org/2000/svg">
<path d="M167.708 125L150 107.292L156.042 101.25C157.569 99.7222 159.514 98.9583 161.875 98.9583C164.236 98.9583 166.181 99.7222 167.708 101.25L173.75 107.292C175.278 108.819 176.042 110.764 176.042 113.125C176.042 115.486 175.278 117.431 173.75 118.958L167.708 125ZM100 175V157.292L144.167 113.125L161.875 130.833L117.708 175H100ZM25 133.333V116.667H83.3333V133.333H25ZM25 100V83.3333H116.667V100H25ZM25 66.6667V50H116.667V66.6667H25Z" fill="#F6D580"/>
</svg>
