<svg width="300" height="300" viewBox="0 0 300 300" fill="none" xmlns="http://www.w3.org/2000/svg">
<rect width="300" height="300" fill="white"/>
<path d="M120.333 156C118.778 156 117.417 155.417 116.25 154.25C115.083 153.083 114.5 151.722 114.5 150.167V91.8333C114.5 90.2778 115.083 88.9167 116.25 87.75C117.417 86.5833 118.778 86 120.333 86H178.667C180.222 86 181.583 86.5833 182.75 87.75C183.917 88.9167 184.5 90.2778 184.5 91.8333V150.167C184.5 151.722 183.917 153.083 182.75 154.25C181.583 155.417 180.222 156 178.667 156H120.333ZM120.333 150.167H178.667V91.8333H120.333V150.167ZM125.778 140.736H173.319L159.028 121.681L146.194 138.306L137.153 125.958L125.778 140.736Z" fill="#6C757D"/>
<path d="M90.4886 183.727V207H86.2386L76.1136 192.352H75.9432V207H71.0227V183.727H75.3409L85.3864 198.364H85.5909V183.727H90.4886ZM115.94 195.364C115.94 197.902 115.459 200.061 114.497 201.841C113.543 203.621 112.24 204.981 110.588 205.92C108.944 206.852 107.096 207.318 105.043 207.318C102.974 207.318 101.118 206.848 99.4744 205.909C97.8305 204.97 96.5313 203.61 95.5767 201.83C94.6222 200.049 94.1449 197.894 94.1449 195.364C94.1449 192.826 94.6222 190.667 95.5767 188.886C96.5313 187.106 97.8305 185.75 99.4744 184.818C101.118 183.879 102.974 183.409 105.043 183.409C107.096 183.409 108.944 183.879 110.588 184.818C112.24 185.75 113.543 187.106 114.497 188.886C115.459 190.667 115.94 192.826 115.94 195.364ZM110.952 195.364C110.952 193.72 110.705 192.333 110.213 191.205C109.728 190.076 109.043 189.22 108.156 188.636C107.27 188.053 106.232 187.761 105.043 187.761C103.853 187.761 102.815 188.053 101.929 188.636C101.043 189.22 100.353 190.076 99.8608 191.205C99.3759 192.333 99.1335 193.72 99.1335 195.364C99.1335 197.008 99.3759 198.394 99.8608 199.523C100.353 200.652 101.043 201.508 101.929 202.091C102.815 202.674 103.853 202.966 105.043 202.966C106.232 202.966 107.27 202.674 108.156 202.091C109.043 201.508 109.728 200.652 110.213 199.523C110.705 198.394 110.952 197.008 110.952 195.364ZM131.912 183.727V207H126.991V183.727H131.912ZM135.96 183.727H142.028L148.438 199.364H148.71L155.119 183.727H161.188V207H156.415V191.852H156.222L150.199 206.886H146.949L140.926 191.795H140.733V207H135.96V183.727ZM169.253 207H163.98L172.014 183.727H178.355L186.378 207H181.105L175.276 189.045H175.094L169.253 207ZM168.923 197.852H181.378V201.693H168.923V197.852ZM203.517 191.25C203.358 190.697 203.134 190.208 202.847 189.784C202.559 189.352 202.206 188.989 201.79 188.693C201.381 188.39 200.911 188.159 200.381 188C199.858 187.841 199.278 187.761 198.642 187.761C197.453 187.761 196.407 188.057 195.506 188.648C194.612 189.239 193.915 190.098 193.415 191.227C192.915 192.348 192.665 193.72 192.665 195.341C192.665 196.962 192.911 198.341 193.403 199.477C193.896 200.614 194.593 201.481 195.494 202.08C196.396 202.67 197.46 202.966 198.688 202.966C199.801 202.966 200.752 202.769 201.54 202.375C202.335 201.973 202.941 201.409 203.358 200.682C203.782 199.955 203.994 199.095 203.994 198.102L204.994 198.25H198.994V194.545H208.733V197.477C208.733 199.523 208.301 201.28 207.438 202.75C206.574 204.212 205.384 205.341 203.869 206.136C202.354 206.924 200.619 207.318 198.665 207.318C196.483 207.318 194.566 206.837 192.915 205.875C191.263 204.905 189.975 203.53 189.051 201.75C188.134 199.962 187.676 197.841 187.676 195.386C187.676 193.5 187.949 191.818 188.494 190.341C189.047 188.856 189.82 187.598 190.812 186.568C191.805 185.538 192.96 184.754 194.278 184.216C195.597 183.678 197.025 183.409 198.562 183.409C199.881 183.409 201.108 183.602 202.244 183.989C203.381 184.367 204.388 184.905 205.267 185.602C206.153 186.299 206.877 187.129 207.438 188.091C207.998 189.045 208.358 190.098 208.517 191.25H203.517ZM212.429 207V183.727H228.111V187.784H217.349V193.33H227.304V197.386H217.349V202.943H228.156V207H212.429Z" fill="#6C757D"/>
</svg>
