<svg width="300" height="300" viewBox="0 0 300 300" fill="none" xmlns="http://www.w3.org/2000/svg">
<rect width="300" height="300" fill="white"/>
<path d="M121.333 156C119.778 156 118.417 155.417 117.25 154.25C116.083 153.083 115.5 151.722 115.5 150.167V91.8333C115.5 90.2778 116.083 88.9167 117.25 87.75C118.417 86.5833 119.778 86 121.333 86H179.667C181.222 86 182.583 86.5833 183.75 87.75C184.917 88.9167 185.5 90.2778 185.5 91.8333V150.167C185.5 151.722 184.917 153.083 183.75 154.25C182.583 155.417 181.222 156 179.667 156H121.333ZM121.333 150.167H179.667V91.8333H121.333V150.167ZM126.778 140.736H174.319L160.028 121.681L147.194 138.306L138.153 125.958L126.778 140.736Z" fill="#78838C"/>
<path d="M91.4886 183.727V207H87.2386L77.1136 192.352H76.9432V207H72.0227V183.727H76.3409L86.3864 198.364H86.5909V183.727H91.4886ZM116.94 195.364C116.94 197.902 116.459 200.061 115.497 201.841C114.543 203.621 113.24 204.981 111.588 205.92C109.944 206.852 108.096 207.318 106.043 207.318C103.974 207.318 102.118 206.848 100.474 205.909C98.8305 204.97 97.5313 203.61 96.5767 201.83C95.6222 200.049 95.1449 197.894 95.1449 195.364C95.1449 192.826 95.6222 190.667 96.5767 188.886C97.5313 187.106 98.8305 185.75 100.474 184.818C102.118 183.879 103.974 183.409 106.043 183.409C108.096 183.409 109.944 183.879 111.588 184.818C113.24 185.75 114.543 187.106 115.497 188.886C116.459 190.667 116.94 192.826 116.94 195.364ZM111.952 195.364C111.952 193.72 111.705 192.333 111.213 191.205C110.728 190.076 110.043 189.22 109.156 188.636C108.27 188.053 107.232 187.761 106.043 187.761C104.853 187.761 103.815 188.053 102.929 188.636C102.043 189.22 101.353 190.076 100.861 191.205C100.376 192.333 100.134 193.72 100.134 195.364C100.134 197.008 100.376 198.394 100.861 199.523C101.353 200.652 102.043 201.508 102.929 202.091C103.815 202.674 104.853 202.966 106.043 202.966C107.232 202.966 108.27 202.674 109.156 202.091C110.043 201.508 110.728 200.652 111.213 199.523C111.705 198.394 111.952 197.008 111.952 195.364ZM132.912 183.727V207H127.991V183.727H132.912ZM136.96 183.727H143.028L149.438 199.364H149.71L156.119 183.727H162.188V207H157.415V191.852H157.222L151.199 206.886H147.949L141.926 191.795H141.733V207H136.96V183.727ZM170.253 207H164.98L173.014 183.727H179.355L187.378 207H182.105L176.276 189.045H176.094L170.253 207ZM169.923 197.852H182.378V201.693H169.923V197.852ZM204.517 191.25C204.358 190.697 204.134 190.208 203.847 189.784C203.559 189.352 203.206 188.989 202.79 188.693C202.381 188.39 201.911 188.159 201.381 188C200.858 187.841 200.278 187.761 199.642 187.761C198.453 187.761 197.407 188.057 196.506 188.648C195.612 189.239 194.915 190.098 194.415 191.227C193.915 192.348 193.665 193.72 193.665 195.341C193.665 196.962 193.911 198.341 194.403 199.477C194.896 200.614 195.593 201.481 196.494 202.08C197.396 202.67 198.46 202.966 199.688 202.966C200.801 202.966 201.752 202.769 202.54 202.375C203.335 201.973 203.941 201.409 204.358 200.682C204.782 199.955 204.994 199.095 204.994 198.102L205.994 198.25H199.994V194.545H209.733V197.477C209.733 199.523 209.301 201.28 208.438 202.75C207.574 204.212 206.384 205.341 204.869 206.136C203.354 206.924 201.619 207.318 199.665 207.318C197.483 207.318 195.566 206.837 193.915 205.875C192.263 204.905 190.975 203.53 190.051 201.75C189.134 199.962 188.676 197.841 188.676 195.386C188.676 193.5 188.949 191.818 189.494 190.341C190.047 188.856 190.82 187.598 191.812 186.568C192.805 185.538 193.96 184.754 195.278 184.216C196.597 183.678 198.025 183.409 199.562 183.409C200.881 183.409 202.108 183.602 203.244 183.989C204.381 184.367 205.388 184.905 206.267 185.602C207.153 186.299 207.877 187.129 208.438 188.091C208.998 189.045 209.358 190.098 209.517 191.25H204.517ZM213.429 207V183.727H229.111V187.784H218.349V193.33H228.304V197.386H218.349V202.943H229.156V207H213.429Z" fill="#78838C"/>
</svg>
