<svg width="924" height="500" viewBox="0 0 924 500" fill="none" xmlns="http://www.w3.org/2000/svg">
<path d="M55.105 8.45165C55.105 3.78393 58.8889 0 63.5566 0H869.845C874.512 0 878.296 3.78394 878.296 8.45166V457.066C878.296 461.733 874.512 465.517 869.845 465.517H63.5567C58.8889 465.517 55.105 461.733 55.105 457.066V8.45165Z" fill="white"/>
<path fill-rule="evenodd" clip-rule="evenodd" d="M869.845 1.0142H63.5566C59.449 1.0142 56.1192 4.34406 56.1192 8.45165V457.066C56.1192 461.173 59.4491 464.503 63.5567 464.503H869.845C873.952 464.503 877.282 461.173 877.282 457.066V8.45166C877.282 4.34406 873.952 1.0142 869.845 1.0142ZM63.5566 0C58.8889 0 55.105 3.78393 55.105 8.45165V457.066C55.105 461.733 58.8889 465.517 63.5567 465.517H869.845C874.512 465.517 878.296 461.733 878.296 457.066V8.45166C878.296 3.78394 874.512 0 869.845 0H63.5566Z" fill="#F07748"/>
<path d="M79.7836 15.8891C79.7836 18.6897 77.5132 20.9601 74.7126 20.9601C71.912 20.9601 69.6416 18.6897 69.6416 15.8891C69.6416 13.0885 71.912 10.8181 74.7126 10.8181C77.5132 10.8181 79.7836 13.0885 79.7836 15.8891Z" fill="white"/>
<path fill-rule="evenodd" clip-rule="evenodd" d="M74.7126 19.9459C76.9531 19.9459 78.7694 18.1296 78.7694 15.8891C78.7694 13.6486 76.9531 11.8323 74.7126 11.8323C72.4721 11.8323 70.6558 13.6486 70.6558 15.8891C70.6558 18.1296 72.4721 19.9459 74.7126 19.9459ZM74.7126 20.9601C77.5132 20.9601 79.7836 18.6897 79.7836 15.8891C79.7836 13.0885 77.5132 10.8181 74.7126 10.8181C71.912 10.8181 69.6416 13.0885 69.6416 15.8891C69.6416 18.6897 71.912 20.9601 74.7126 20.9601Z" fill="#F07748"/>
<path d="M94.9965 15.8891C94.9965 18.6897 92.7261 20.9601 89.9255 20.9601C87.1249 20.9601 84.8545 18.6897 84.8545 15.8891C84.8545 13.0885 87.1249 10.8181 89.9255 10.8181C92.7261 10.8181 94.9965 13.0885 94.9965 15.8891Z" fill="white"/>
<path fill-rule="evenodd" clip-rule="evenodd" d="M89.9255 19.9459C92.166 19.9459 93.9823 18.1296 93.9823 15.8891C93.9823 13.6486 92.166 11.8323 89.9255 11.8323C87.685 11.8323 85.8687 13.6486 85.8687 15.8891C85.8687 18.1296 87.685 19.9459 89.9255 19.9459ZM89.9255 20.9601C92.7261 20.9601 94.9965 18.6897 94.9965 15.8891C94.9965 13.0885 92.7261 10.8181 89.9255 10.8181C87.1249 10.8181 84.8545 13.0885 84.8545 15.8891C84.8545 18.6897 87.1249 20.9601 89.9255 20.9601Z" fill="#F07748"/>
<path d="M110.209 15.8891C110.209 18.6897 107.939 20.9601 105.138 20.9601C102.338 20.9601 100.067 18.6897 100.067 15.8891C100.067 13.0885 102.338 10.8181 105.138 10.8181C107.939 10.8181 110.209 13.0885 110.209 15.8891Z" fill="white"/>
<path fill-rule="evenodd" clip-rule="evenodd" d="M105.138 19.9459C107.379 19.9459 109.195 18.1296 109.195 15.8891C109.195 13.6486 107.379 11.8323 105.138 11.8323C102.898 11.8323 101.082 13.6486 101.082 15.8891C101.082 18.1296 102.898 19.9459 105.138 19.9459ZM105.138 20.9601C107.939 20.9601 110.209 18.6897 110.209 15.8891C110.209 13.0885 107.939 10.8181 105.138 10.8181C102.338 10.8181 100.067 13.0885 100.067 15.8891C100.067 18.6897 102.338 20.9601 105.138 20.9601Z" fill="#F07748"/>
<path fill-rule="evenodd" clip-rule="evenodd" d="M878.296 31.7782H55.105V30.764H878.296V31.7782Z" fill="#F07748"/>
<path d="M162.61 67.6132C162.61 62.9455 166.394 59.1616 171.062 59.1616H762.678C767.345 59.1616 771.129 62.9455 771.129 67.6132V142.326C771.129 146.994 767.345 150.778 762.678 150.778H171.062C166.394 150.778 162.61 146.994 162.61 142.326V67.6132Z" fill="white"/>
<path fill-rule="evenodd" clip-rule="evenodd" d="M762.678 60.1758H171.062C166.954 60.1758 163.624 63.5057 163.624 67.6132V142.326C163.624 146.433 166.954 149.763 171.062 149.763H762.678C766.785 149.763 770.115 146.433 770.115 142.326V67.6132C770.115 63.5057 766.785 60.1758 762.678 60.1758ZM171.062 59.1616C166.394 59.1616 162.61 62.9455 162.61 67.6132V142.326C162.61 146.994 166.394 150.778 171.062 150.778H762.678C767.345 150.778 771.129 146.994 771.129 142.326V67.6132C771.129 62.9455 767.345 59.1616 762.678 59.1616H171.062Z" fill="#F07748"/>
<path fill-rule="evenodd" clip-rule="evenodd" d="M771.129 269.101H162.61V268.087H771.129V269.101Z" fill="#F07748"/>
<path fill-rule="evenodd" clip-rule="evenodd" d="M771.129 387.424H162.61V386.41H771.129V387.424Z" fill="#F07748"/>
<path d="M0 119.337C0 114.67 3.78394 110.886 8.45166 110.886H540.568C545.236 110.886 549.02 114.67 549.02 119.337V327.586C549.02 332.254 545.236 336.038 540.568 336.038H8.45166C3.78394 336.038 0 332.254 0 327.586V119.337Z" fill="white"/>
<path fill-rule="evenodd" clip-rule="evenodd" d="M540.568 111.9H8.45166C4.34406 111.9 1.0142 115.23 1.0142 119.337V327.586C1.0142 331.694 4.34406 335.024 8.45166 335.024H540.568C544.676 335.024 548.005 331.694 548.005 327.586V119.337C548.005 115.23 544.676 111.9 540.568 111.9ZM8.45166 110.886C3.78394 110.886 0 114.67 0 119.337V327.586C0 332.254 3.78394 336.038 8.45166 336.038H540.568C545.236 336.038 549.02 332.254 549.02 327.586V119.337C549.02 114.67 545.236 110.886 540.568 110.886H8.45166Z" fill="#F07748"/>
<path fill-rule="evenodd" clip-rule="evenodd" d="M71.7815 168.244C70.8185 169.149 69.8443 171.203 68.1799 175.837C66.9248 179.332 65.8981 182.403 65.8981 182.663C65.8981 182.923 66.2521 183.275 66.6844 183.445C71.2396 185.236 135.339 208.473 135.717 208.471C136.388 208.466 140.968 195.58 140.953 193.737C140.929 190.76 141.026 190.804 107.352 178.52C89.9896 172.187 75.1809 167.005 74.4431 167.005C73.5996 167.005 72.6119 167.465 71.7815 168.244ZM111.41 206.965C111.109 207.087 110.733 207.933 110.575 208.845C110.21 210.948 108.464 213.569 106.886 214.382C105.926 214.877 102.895 215.01 92.635 215.01H79.6035L77.1595 216.362C74.4372 217.868 72.376 220.417 71.2194 223.708L70.4743 225.828L67.642 225.965C66.0836 226.04 64.5486 226.319 64.23 226.584C63.8607 226.891 63.6513 228.186 63.6513 230.165V233.266H60.7304H57.8096V252.663C57.8096 273.8 57.8239 273.934 60.4172 276.708C61.0836 277.421 62.438 278.38 63.4266 278.839C65.1198 279.625 66.9729 279.674 95.3311 279.674C123.493 279.674 125.555 279.62 127.24 278.853C129.505 277.821 131.763 275.273 132.376 273.057C132.671 271.993 132.849 264.209 132.85 252.31L132.853 233.266H129.932H127.011V230.201C127.011 226.941 126.572 226.054 124.958 226.054C123.999 226.054 123.994 226.012 124.605 223.462C125.815 218.415 124.074 213.692 119.735 210.251C115.884 207.198 113.324 206.187 111.41 206.965ZM118.414 215.462C119.181 216.339 119.937 217.57 120.094 218.198C120.449 219.616 120.098 223.159 119.438 224.814L118.945 226.054H97.1398C85.1468 226.054 75.3346 225.946 75.3346 225.814C75.3346 224.855 76.8049 222.425 77.9899 221.424C80.38 219.407 82.1348 219.185 91.6684 219.689C106.411 220.47 110.488 219.341 113.772 213.572L114.591 212.134L115.805 213.002C116.474 213.479 117.647 214.586 118.414 215.462Z" fill="#FCF1D3"/>
<path fill-rule="evenodd" clip-rule="evenodd" d="M69.1344 176.18C68.5088 177.922 67.9409 179.556 67.5302 180.785C67.3246 181.4 67.1602 181.908 67.048 182.275C67.026 182.347 67.0064 182.412 66.9892 182.47C67.0111 182.482 67.0334 182.492 67.0555 182.501C69.3164 183.39 86.46 189.64 103.113 195.677C111.433 198.693 119.623 201.653 125.755 203.859C128.822 204.962 131.373 205.876 133.169 206.514C134.067 206.833 134.774 207.082 135.262 207.252C135.283 207.259 135.304 207.266 135.324 207.273C135.479 206.964 135.669 206.544 135.886 206.03C136.399 204.818 137.027 203.169 137.637 201.453C138.246 199.739 138.832 197.972 139.264 196.526C139.48 195.802 139.654 195.168 139.773 194.666C139.9 194.128 139.939 193.837 139.939 193.746C139.932 192.983 139.912 192.787 139.658 192.491C139.301 192.076 138.457 191.496 136.352 190.543C132.224 188.673 123.926 185.646 107.179 179.537L107.004 179.473C98.326 176.307 90.2877 173.43 84.3283 171.345C81.348 170.302 78.8912 169.458 77.1355 168.876C76.2568 168.585 75.5599 168.361 75.0633 168.211C74.8139 168.135 74.6238 168.081 74.4903 168.047C74.4434 168.034 74.408 168.026 74.3825 168.02C73.8782 168.043 73.1576 168.344 72.4758 168.984C72.1355 169.303 71.7167 169.903 71.1601 171.077C70.6102 172.236 69.9641 173.87 69.1344 176.18ZM71.7815 168.244C70.8185 169.149 69.8443 171.203 68.1799 175.837C66.9248 179.332 65.8981 182.403 65.8981 182.663C65.8981 182.923 66.2521 183.275 66.6844 183.445C71.2396 185.236 135.339 208.473 135.717 208.471C136.388 208.466 140.968 195.58 140.953 193.737C140.95 193.347 140.949 193.009 140.873 192.689C140.375 190.56 136.616 189.196 107.352 178.52C89.9896 172.187 75.1809 167.005 74.4431 167.005C73.5996 167.005 72.6119 167.465 71.7815 168.244ZM135.067 207.727C135.067 207.727 135.068 207.726 135.069 207.724C135.067 207.727 135.067 207.727 135.067 207.727ZM74.3378 168.011C74.3378 168.011 74.3404 168.012 74.3465 168.013C74.341 168.012 74.3378 168.011 74.3378 168.011ZM66.903 182.788L66.9028 182.788C66.9012 182.796 66.9008 182.8 66.9008 182.8C66.9008 182.8 66.9017 182.795 66.903 182.788ZM111.41 206.965C111.109 207.087 110.733 207.933 110.575 208.845C110.21 210.948 108.464 213.569 106.886 214.382C105.926 214.877 102.895 215.01 92.635 215.01H79.6035L77.1595 216.362C74.4372 217.868 72.376 220.417 71.2194 223.708L70.4743 225.828L67.642 225.965C66.0836 226.04 64.5486 226.319 64.23 226.584C63.8607 226.891 63.6513 228.186 63.6513 230.165V233.266H57.8096V252.663C57.8096 273.8 57.8239 273.934 60.4172 276.708C61.0836 277.421 62.438 278.38 63.4266 278.839C65.1198 279.625 66.9729 279.674 95.3311 279.674C123.493 279.674 125.555 279.62 127.24 278.853C129.505 277.821 131.763 275.273 132.376 273.057C132.671 271.993 132.849 264.209 132.85 252.31L132.853 233.266H127.011V230.201C127.011 226.941 126.572 226.054 124.958 226.054C123.999 226.054 123.994 226.012 124.605 223.462C125.815 218.415 124.074 213.692 119.735 210.251C115.884 207.198 113.324 206.187 111.41 206.965ZM131.838 234.28H125.997V230.201C125.997 228.543 125.872 227.741 125.681 227.355C125.61 227.211 125.552 227.173 125.506 227.15C125.434 227.114 125.281 227.068 124.958 227.068C124.946 227.068 124.932 227.068 124.918 227.068C124.729 227.069 124.38 227.07 124.079 226.965C123.874 226.894 123.643 226.762 123.46 226.525C123.284 226.296 123.215 226.049 123.188 225.851C123.14 225.501 123.203 225.104 123.272 224.749C123.347 224.36 123.468 223.855 123.619 223.225C124.729 218.594 123.161 214.262 119.104 211.045C117.209 209.543 115.698 208.598 114.474 208.115C113.363 207.676 112.568 207.648 111.953 207.846C111.929 207.889 111.899 207.946 111.866 208.021C111.751 208.278 111.64 208.636 111.574 209.019C111.361 210.245 110.764 211.557 110.029 212.66C109.304 213.748 108.357 214.765 107.351 215.283M107.351 215.283C106.956 215.487 106.449 215.607 105.839 215.693C105.212 215.782 104.384 215.847 103.293 215.895C101.107 215.991 97.7626 216.024 92.635 216.024H79.8654L77.6505 217.25C75.1726 218.621 73.2611 220.958 72.1762 224.045L71.2049 226.808L67.6909 226.978C66.9515 227.014 66.2225 227.098 65.6521 227.201C65.3657 227.253 65.136 227.307 64.9725 227.356C64.9557 227.362 64.9404 227.366 64.9264 227.371C64.8873 227.486 64.8434 227.661 64.8033 227.909C64.7168 228.445 64.6654 229.204 64.6654 230.165V234.28H58.8238V252.663C58.8238 263.269 58.8291 268.51 59.1492 271.462C59.3072 272.919 59.534 273.721 59.8231 274.3C60.1137 274.882 60.4986 275.31 61.1581 276.015C61.7256 276.622 62.9696 277.509 63.8536 277.919C64.4819 278.211 65.1606 278.426 69.406 278.537C73.6089 278.647 81.1444 278.659 95.3311 278.659C109.419 278.659 116.958 278.646 121.188 278.537C125.464 278.427 126.194 278.215 126.819 277.93C127.795 277.485 128.816 276.688 129.668 275.726C130.524 274.761 131.145 273.703 131.399 272.787C131.399 272.787 131.4 272.784 131.401 272.777C131.403 272.769 131.405 272.759 131.408 272.745C131.413 272.717 131.42 272.679 131.427 272.631C131.441 272.535 131.456 272.408 131.472 272.249C131.503 271.932 131.533 271.51 131.562 270.985C131.619 269.935 131.668 268.502 131.709 266.723C131.79 263.168 131.835 258.256 131.836 252.31L131.838 234.28M111.793 207.904L111.792 207.905L111.791 207.905L111.793 207.904ZM119.177 214.794L119.178 214.794C119.602 215.28 120.016 215.854 120.347 216.392C120.663 216.906 120.96 217.48 121.078 217.952C121.301 218.841 121.284 220.23 121.156 221.517C121.026 222.825 120.762 224.233 120.38 225.19L119.633 227.068H97.1398C91.1408 227.068 85.6856 227.041 81.7287 226.997C79.751 226.976 78.1438 226.95 77.0289 226.921C76.473 226.907 76.0316 226.891 75.7255 226.875C75.5755 226.867 75.4421 226.858 75.3393 226.847C75.2933 226.842 75.2222 226.833 75.1496 226.818C75.1214 226.812 75.0372 226.793 74.9405 226.751C74.8965 226.733 74.7879 226.683 74.6744 226.585C74.569 226.495 74.3204 226.238 74.3204 225.814C74.3204 225.368 74.4772 224.884 74.6456 224.477C74.8261 224.04 75.0726 223.568 75.3501 223.11C75.8947 222.209 76.6255 221.249 77.3357 220.649C77.9738 220.111 78.6105 219.657 79.3735 219.309C80.1373 218.96 80.9825 218.737 82.0227 218.605C84.0597 218.347 86.9786 218.425 91.722 218.676C99.1084 219.067 103.655 218.965 106.747 218.109C108.264 217.689 109.406 217.093 110.353 216.296C111.306 215.493 112.107 214.448 112.891 213.071L114.265 210.656L116.395 212.177C117.147 212.714 118.378 213.882 119.177 214.794ZM113.772 213.572C110.488 219.341 106.411 220.47 91.6684 219.689C82.1348 219.185 80.38 219.407 77.9899 221.424C77.1091 222.168 76.0706 223.702 75.5956 224.834C75.5949 224.835 75.5942 224.837 75.5935 224.839C75.4307 225.227 75.3346 225.569 75.3346 225.814C75.3346 225.946 85.1468 226.054 97.1398 226.054H118.945L119.438 224.814C120.098 223.159 120.449 219.616 120.094 218.198C119.937 217.57 119.181 216.339 118.414 215.462C117.647 214.586 116.474 213.479 115.805 213.002L114.591 212.134L113.772 213.572Z" fill="#F07748"/>
<path d="M499.324 167.005C499.324 162.337 503.108 158.553 507.775 158.553V158.553C512.443 158.553 516.227 162.337 516.227 167.005V167.005C516.227 171.672 512.443 175.456 507.775 175.456V175.456C503.108 175.456 499.324 171.672 499.324 167.005V167.005Z" fill="#F07748" fill-opacity="0.5"/>
<path d="M473.293 167.005C473.293 162.337 477.077 158.553 481.745 158.553V158.553C486.412 158.553 490.196 162.337 490.196 167.005V167.005C490.196 171.672 486.412 175.456 481.745 175.456V175.456C477.077 175.456 473.293 171.672 473.293 167.005V167.005Z" fill="#6C757D" fill-opacity="0.5"/>
<path fill-rule="evenodd" clip-rule="evenodd" d="M516.227 184.922H178.161V183.908H516.227V184.922Z" fill="#F07748"/>
<path d="M189.655 168.357H196.417V175.118H189.655V168.357Z" fill="#F07748" fill-opacity="0.5"/>
<path d="M199.797 170.047H203.178V173.428H199.797V170.047Z" fill="#F07748" fill-opacity="0.5"/>
<path d="M206.559 170.047H209.939V173.428H206.559V170.047Z" fill="#F07748" fill-opacity="0.5"/>
<path d="M213.32 170.047H216.7V173.428H213.32V170.047Z" fill="#F07748" fill-opacity="0.5"/>
<path d="M220.081 170.047H223.462V173.428H220.081V170.047Z" fill="#F07748" fill-opacity="0.5"/>
<path d="M226.842 170.047H230.223V173.428H226.842V170.047Z" fill="#F07748" fill-opacity="0.5"/>
<path d="M233.604 170.047H236.985V173.428H233.604V170.047Z" fill="#F07748" fill-opacity="0.5"/>
<path d="M240.365 170.047H243.746V173.428H240.365V170.047Z" fill="#F07748" fill-opacity="0.5"/>
<path d="M247.126 170.047H250.507V173.428H247.126V170.047Z" fill="#F07748" fill-opacity="0.5"/>
<path d="M253.888 170.047H257.268V173.428H253.888V170.047Z" fill="#F07748" fill-opacity="0.5"/>
<path d="M260.649 170.047H264.03V173.428H260.649V170.047Z" fill="#F07748" fill-opacity="0.5"/>
<path d="M267.41 170.047H270.791V173.428H267.41V170.047Z" fill="#F07748" fill-opacity="0.5"/>
<path d="M499.324 203.516C499.324 198.848 503.108 195.064 507.775 195.064C512.443 195.064 516.227 198.848 516.227 203.516C516.227 208.184 512.443 211.968 507.775 211.968C503.108 211.968 499.324 208.184 499.324 203.516Z" fill="#F07748" fill-opacity="0.5"/>
<path d="M473.293 203.516C473.293 198.848 477.077 195.064 481.745 195.064V195.064C486.412 195.064 490.196 198.848 490.196 203.516V203.516C490.196 208.184 486.412 211.968 481.745 211.968V211.968C477.077 211.968 473.293 208.184 473.293 203.516V203.516Z" fill="#6C757D" fill-opacity="0.5"/>
<path fill-rule="evenodd" clip-rule="evenodd" d="M516.227 221.433H178.161V220.419H516.227V221.433Z" fill="#F07748"/>
<path d="M189.655 205.206H196.417V211.968H189.655V205.206Z" fill="#F07748" fill-opacity="0.5"/>
<path d="M199.797 206.897H203.178V210.277H199.797V206.897Z" fill="#F07748" fill-opacity="0.5"/>
<path d="M206.559 206.897H209.939V210.277H206.559V206.897Z" fill="#F07748" fill-opacity="0.5"/>
<path d="M213.32 206.897H216.7V210.277H213.32V206.897Z" fill="#F07748" fill-opacity="0.5"/>
<path d="M220.081 206.897H223.462V210.277H220.081V206.897Z" fill="#F07748" fill-opacity="0.5"/>
<path d="M226.842 206.897H230.223V210.277H226.842V206.897Z" fill="#F07748" fill-opacity="0.5"/>
<path d="M233.604 206.897H236.985V210.277H233.604V206.897Z" fill="#F07748" fill-opacity="0.5"/>
<path d="M240.365 206.897H243.746V210.277H240.365V206.897Z" fill="#F07748" fill-opacity="0.5"/>
<path d="M247.126 206.897H250.507V210.277H247.126V206.897Z" fill="#F07748" fill-opacity="0.5"/>
<path d="M253.888 206.897H257.268V210.277H253.888V206.897Z" fill="#F07748" fill-opacity="0.5"/>
<path d="M260.649 206.897H264.03V210.277H260.649V206.897Z" fill="#F07748" fill-opacity="0.5"/>
<path d="M267.41 206.897H270.791V210.277H267.41V206.897Z" fill="#F07748" fill-opacity="0.5"/>
<path d="M274.172 206.897H277.553V210.277H274.172V206.897Z" fill="#F07748" fill-opacity="0.5"/>
<path d="M280.933 206.897H284.314V210.277H280.933V206.897Z" fill="#F07748" fill-opacity="0.5"/>
<path d="M287.694 206.897H291.075V210.277H287.694V206.897Z" fill="#F07748" fill-opacity="0.5"/>
<path d="M294.456 206.897H297.836V210.277H294.456V206.897Z" fill="#F07748" fill-opacity="0.5"/>
<path d="M301.217 206.897H304.597V210.277H301.217V206.897Z" fill="#F07748" fill-opacity="0.5"/>
<path d="M399.594 283.3C399.594 278.632 403.378 274.848 408.046 274.848H713.32C717.987 274.848 721.771 278.632 721.771 283.3V491.548C721.771 496.216 717.987 500 713.32 500H408.046C403.378 500 399.594 496.216 399.594 491.548V283.3Z" fill="white"/>
<path fill-rule="evenodd" clip-rule="evenodd" d="M713.32 275.862H408.046C403.938 275.862 400.608 279.192 400.608 283.3V491.548C400.608 495.656 403.938 498.986 408.046 498.986H713.32C717.427 498.986 720.757 495.656 720.757 491.548V283.3C720.757 279.192 717.427 275.862 713.32 275.862ZM408.046 274.848C403.378 274.848 399.594 278.632 399.594 283.3V491.548C399.594 496.216 403.378 500 408.046 500H713.32C717.987 500 721.771 496.216 721.771 491.548V283.3C721.771 278.632 717.987 274.848 713.32 274.848H408.046Z" fill="#F07748"/>
<path fill-rule="evenodd" clip-rule="evenodd" d="M696.078 432.387H425.625V431.373H696.078V432.387Z" fill="#F07748"/>
<path d="M437.12 415.822H443.881V422.583H437.12V415.822Z" fill="#F07748" fill-opacity="0.5"/>
<path d="M447.262 417.512H450.642V420.893H447.262V417.512Z" fill="#F07748" fill-opacity="0.5"/>
<path d="M454.023 417.512H457.404V420.893H454.023V417.512Z" fill="#F07748" fill-opacity="0.5"/>
<path d="M460.784 417.512H464.165V420.893H460.784V417.512Z" fill="#F07748" fill-opacity="0.5"/>
<path d="M467.545 417.512H470.926V420.893H467.545V417.512Z" fill="#F07748" fill-opacity="0.5"/>
<path d="M474.307 417.512H477.688V420.893H474.307V417.512Z" fill="#F07748" fill-opacity="0.5"/>
<path d="M481.068 417.512H484.449V420.893H481.068V417.512Z" fill="#F07748" fill-opacity="0.5"/>
<path d="M487.83 417.512H491.21V420.893H487.83V417.512Z" fill="#F07748" fill-opacity="0.5"/>
<path d="M494.591 417.512H497.971V420.893H494.591V417.512Z" fill="#F07748" fill-opacity="0.5"/>
<path d="M501.352 417.512H504.733V420.893H501.352V417.512Z" fill="#F07748" fill-opacity="0.5"/>
<path d="M508.114 417.512H511.494V420.893H508.114V417.512Z" fill="#F07748" fill-opacity="0.5"/>
<path d="M514.875 417.512H518.256V420.893H514.875V417.512Z" fill="#F07748" fill-opacity="0.5"/>
<path fill-rule="evenodd" clip-rule="evenodd" d="M696.078 468.898H425.625V467.884H696.078V468.898Z" fill="#F07748"/>
<path d="M437.12 452.671H443.881V459.432H437.12V452.671Z" fill="#F07748" fill-opacity="0.5"/>
<path d="M447.262 454.361H450.642V457.742H447.262V454.361Z" fill="#F07748" fill-opacity="0.5"/>
<path d="M454.023 454.361H457.404V457.742H454.023V454.361Z" fill="#F07748" fill-opacity="0.5"/>
<path d="M460.784 454.361H464.165V457.742H460.784V454.361Z" fill="#F07748" fill-opacity="0.5"/>
<path d="M467.545 454.361H470.926V457.742H467.545V454.361Z" fill="#F07748" fill-opacity="0.5"/>
<path d="M474.307 454.361H477.688V457.742H474.307V454.361Z" fill="#F07748" fill-opacity="0.5"/>
<path d="M481.068 454.361H484.449V457.742H481.068V454.361Z" fill="#F07748" fill-opacity="0.5"/>
<path d="M487.83 454.361H491.21V457.742H487.83V454.361Z" fill="#F07748" fill-opacity="0.5"/>
<path d="M494.591 454.361H497.971V457.742H494.591V454.361Z" fill="#F07748" fill-opacity="0.5"/>
<path d="M501.352 454.361H504.733V457.742H501.352V454.361Z" fill="#F07748" fill-opacity="0.5"/>
<path d="M508.114 454.361H511.494V457.742H508.114V454.361Z" fill="#F07748" fill-opacity="0.5"/>
<path d="M514.875 454.361H518.256V457.742H514.875V454.361Z" fill="#F07748" fill-opacity="0.5"/>
<path d="M521.636 454.361H525.017V457.742H521.636V454.361Z" fill="#F07748" fill-opacity="0.5"/>
<path d="M528.397 454.361H531.778V457.742H528.397V454.361Z" fill="#F07748" fill-opacity="0.5"/>
<path d="M535.159 454.361H538.539V457.742H535.159V454.361Z" fill="#F07748" fill-opacity="0.5"/>
<path d="M541.92 454.361H545.301V457.742H541.92V454.361Z" fill="#F07748" fill-opacity="0.5"/>
<path d="M548.682 454.361H552.062V457.742H548.682V454.361Z" fill="#F07748" fill-opacity="0.5"/>
<path d="M525.228 386.114C524.313 385.198 523.855 384.142 523.855 382.945C523.855 381.747 524.313 380.691 525.228 379.775L550.795 354.209C551.217 353.786 551.675 353.486 552.168 353.309C552.661 353.131 553.189 353.044 553.753 353.047C554.316 353.047 554.844 353.134 555.337 353.309C555.83 353.484 556.288 353.784 556.711 354.209L570.656 368.154L597.701 337.728C598.476 336.813 599.48 336.355 600.714 336.355C601.948 336.355 602.987 336.777 603.829 337.623C604.604 338.397 605.008 339.331 605.042 340.424C605.075 341.517 604.706 342.485 603.935 343.327L573.614 377.451C573.192 377.944 572.717 378.315 572.19 378.562C571.663 378.81 571.117 378.933 570.55 378.93C569.987 378.93 569.442 378.824 568.915 378.613C568.388 378.402 567.912 378.085 567.487 377.662L553.753 363.928L531.567 386.114C530.652 387.03 529.595 387.487 528.398 387.487C527.2 387.487 526.144 387.03 525.228 386.114ZM526.285 358.857C525.933 358.857 525.581 358.769 525.228 358.591C524.876 358.414 524.595 358.115 524.383 357.695L522.27 353.153L517.728 351.04C517.305 350.828 517.005 350.547 516.827 350.194C516.65 349.842 516.563 349.49 516.565 349.138C516.565 348.786 516.654 348.434 516.832 348.082C517.009 347.729 517.308 347.448 517.728 347.236L522.27 345.123L524.383 340.581C524.595 340.158 524.876 339.859 525.228 339.685C525.581 339.51 525.933 339.421 526.285 339.419C526.637 339.419 526.989 339.507 527.341 339.685C527.694 339.862 527.975 340.161 528.187 340.581L530.299 345.123L534.842 347.236C535.617 347.589 536.004 348.222 536.004 349.138C536.004 350.054 535.617 350.687 534.842 351.04L530.299 353.153L528.187 357.695C527.975 358.118 527.694 358.416 527.341 358.591C526.989 358.766 526.637 358.855 526.285 358.857ZM572.769 350.406C572.417 350.406 572.065 350.317 571.713 350.139C571.36 349.962 571.079 349.663 570.867 349.244L568.754 344.701L564.212 342.588C563.789 342.377 563.491 342.095 563.316 341.743C563.141 341.391 563.052 341.038 563.05 340.686C563.05 340.334 563.138 339.982 563.316 339.63C563.493 339.278 563.792 338.996 564.212 338.785L568.754 336.672L570.867 332.129C571.079 331.706 571.36 331.408 571.713 331.233C572.065 331.058 572.417 330.97 572.769 330.967C573.121 330.967 573.473 331.056 573.825 331.233C574.178 331.411 574.459 331.709 574.671 332.129L576.784 336.672L581.326 338.785C581.749 338.996 582.049 339.278 582.226 339.63C582.404 339.982 582.491 340.334 582.488 340.686C582.488 341.038 582.4 341.391 582.222 341.743C582.045 342.095 581.746 342.377 581.326 342.588L576.784 344.701L574.671 349.244C574.459 349.666 574.178 349.966 573.825 350.144C573.473 350.321 573.121 350.409 572.769 350.406ZM545.301 337.728C544.949 337.728 544.597 337.623 544.245 337.411C543.893 337.2 543.611 336.883 543.4 336.46L540.653 330.544L534.737 327.798C534.314 327.586 533.997 327.305 533.786 326.952C533.574 326.6 533.469 326.248 533.469 325.896C533.469 325.544 533.574 325.192 533.786 324.839C533.997 324.487 534.314 324.206 534.737 323.994L540.653 321.248L543.4 315.331C543.611 314.909 543.893 314.592 544.245 314.381C544.597 314.169 544.949 314.064 545.301 314.064C545.653 314.064 546.005 314.169 546.358 314.381C546.71 314.592 546.991 314.909 547.203 315.331L549.95 321.248L555.866 323.994C556.288 324.206 556.605 324.487 556.817 324.839C557.028 325.192 557.133 325.544 557.133 325.896C557.133 326.248 557.028 326.6 556.817 326.952C556.605 327.305 556.288 327.586 555.866 327.798L549.95 330.544L547.203 336.46C546.991 336.883 546.71 337.2 546.358 337.411C546.005 337.623 545.653 337.728 545.301 337.728Z" fill="#FCF1D3"/>
<path fill-rule="evenodd" clip-rule="evenodd" d="M553.75 354.061L553.748 354.061C553.294 354.059 552.885 354.129 552.512 354.263C552.178 354.383 551.844 354.594 551.512 354.926L525.946 380.492C525.203 381.235 524.869 382.04 524.869 382.945C524.869 383.85 525.203 384.654 525.946 385.397C526.688 386.139 527.493 386.473 528.398 386.473C529.303 386.473 530.108 386.139 530.85 385.397L553.753 362.494L568.201 376.943C568.202 376.943 568.202 376.944 568.203 376.944C568.537 377.276 568.9 377.514 569.293 377.672C569.7 377.835 570.117 377.916 570.55 377.916H570.553L570.556 377.916C570.966 377.918 571.364 377.83 571.758 377.645C572.141 377.465 572.504 377.188 572.844 376.791L572.85 376.784L603.182 342.648L603.187 342.642C603.789 341.985 604.053 341.272 604.028 340.456C604.002 339.621 603.704 338.932 603.112 338.34L603.111 338.339C602.466 337.691 601.689 337.369 600.714 337.369C599.769 337.369 599.051 337.703 598.476 338.383L598.468 338.393L570.7 369.632L555.991 354.924C555.66 354.59 555.329 354.382 554.999 354.265C554.623 354.132 554.21 354.061 553.753 354.061H553.75ZM567.487 377.662L553.753 363.928L531.567 386.114C530.652 387.03 529.595 387.487 528.398 387.487C527.2 387.487 526.144 387.03 525.228 386.114C524.313 385.198 523.855 384.142 523.855 382.945C523.855 381.747 524.313 380.691 525.228 379.775L550.795 354.209C551.217 353.786 551.675 353.486 552.168 353.309C552.661 353.131 553.189 353.044 553.753 353.047C554.316 353.047 554.844 353.134 555.337 353.309C555.83 353.484 556.288 353.784 556.711 354.209L570.656 368.154L597.701 337.728C598.476 336.813 599.48 336.355 600.714 336.355C601.948 336.355 602.987 336.777 603.829 337.623C604.604 338.397 605.008 339.331 605.042 340.424C605.075 341.517 604.706 342.485 603.935 343.327L573.614 377.451C573.192 377.944 572.717 378.314 572.19 378.562C571.663 378.81 571.117 378.933 570.55 378.93C569.987 378.93 569.442 378.824 568.915 378.613C568.388 378.402 567.912 378.085 567.487 377.662ZM522.27 353.153L524.383 357.695C524.595 358.115 524.876 358.414 525.228 358.591C525.581 358.769 525.933 358.857 526.285 358.857C526.637 358.855 526.989 358.766 527.341 358.591C527.694 358.416 527.975 358.118 528.187 357.695L530.299 353.153L534.842 351.04C535.617 350.687 536.004 350.054 536.004 349.138C536.004 348.222 535.617 347.589 534.842 347.236L530.299 345.123L528.187 340.581C527.975 340.161 527.694 339.862 527.341 339.685C526.989 339.507 526.637 339.419 526.285 339.419C525.933 339.421 525.581 339.51 525.228 339.685C524.876 339.859 524.595 340.158 524.383 340.581L522.27 345.123L517.728 347.236C517.308 347.448 517.009 347.729 516.832 348.082C516.654 348.434 516.565 348.786 516.565 349.138C516.563 349.49 516.65 349.842 516.827 350.194C517.005 350.547 517.305 350.828 517.728 351.04L522.27 353.153ZM518.17 350.127L523.034 352.389L525.296 357.252C525.426 357.507 525.564 357.625 525.685 357.685C525.911 357.799 526.107 357.843 526.281 357.843C526.461 357.841 526.662 357.796 526.891 357.683C527.006 357.625 527.142 357.511 527.274 357.253L529.536 352.389L534.418 350.118L534.423 350.116C534.653 350.012 534.775 349.891 534.848 349.771C534.924 349.647 534.99 349.452 534.99 349.138C534.99 348.824 534.924 348.629 534.848 348.505C534.775 348.385 534.653 348.264 534.423 348.16L534.418 348.158L529.536 345.887L527.274 341.024C527.143 340.769 527.006 340.651 526.885 340.59C526.659 340.477 526.463 340.433 526.289 340.433C526.108 340.435 525.908 340.48 525.679 340.593C525.564 340.651 525.428 340.765 525.296 341.023L523.034 345.887L518.171 348.149C517.916 348.28 517.798 348.417 517.737 348.538C517.623 348.766 517.58 348.963 517.58 349.138V349.142L517.58 349.146C517.578 349.318 517.619 349.512 517.733 349.738C517.793 349.857 517.911 349.995 518.17 350.127ZM568.754 344.701L570.867 349.244C571.079 349.663 571.36 349.962 571.713 350.139C572.065 350.317 572.417 350.406 572.769 350.406C573.121 350.409 573.473 350.321 573.825 350.144C574.178 349.966 574.459 349.666 574.671 349.244L576.784 344.701L581.326 342.588C581.746 342.377 582.045 342.095 582.222 341.743C582.4 341.391 582.488 341.038 582.488 340.686C582.491 340.334 582.404 339.982 582.226 339.63C582.049 339.278 581.749 338.996 581.326 338.785L576.784 336.672L574.671 332.129C574.459 331.709 574.178 331.411 573.825 331.233C573.473 331.056 573.121 330.967 572.769 330.967C572.417 330.97 572.065 331.058 571.713 331.233C571.36 331.408 571.079 331.706 570.867 332.129L568.754 336.672L564.212 338.785C563.792 338.996 563.493 339.278 563.316 339.63C563.138 339.982 563.05 340.334 563.05 340.686C563.052 341.038 563.141 341.391 563.316 341.743C563.491 342.095 563.789 342.377 564.212 342.588L568.754 344.701ZM564.654 341.675L569.518 343.937L571.78 348.8C571.911 349.055 572.048 349.173 572.169 349.234C572.397 349.349 572.594 349.392 572.769 349.392H572.773L572.777 349.392C572.95 349.393 573.143 349.352 573.369 349.238C573.488 349.178 573.626 349.061 573.758 348.801L576.02 343.937L580.883 341.676C581.138 341.545 581.256 341.407 581.317 341.286C581.431 341.059 581.474 340.862 581.474 340.686V340.682L581.474 340.678C581.476 340.506 581.434 340.312 581.321 340.086C581.261 339.967 581.143 339.829 580.884 339.698L576.02 337.435L573.758 332.573C573.627 332.317 573.49 332.2 573.369 332.139C573.143 332.025 572.947 331.982 572.773 331.981C572.593 331.983 572.392 332.028 572.163 332.142C572.048 332.199 571.912 332.313 571.78 332.571L569.518 337.435L564.655 339.697C564.4 339.828 564.282 339.965 564.222 340.086C564.108 340.312 564.064 340.508 564.064 340.682C564.066 340.863 564.111 341.063 564.224 341.292C564.282 341.408 564.396 341.544 564.654 341.675ZM540.653 330.544L543.4 336.46C543.611 336.883 543.893 337.2 544.245 337.411C544.597 337.623 544.949 337.728 545.301 337.728C545.653 337.728 546.005 337.623 546.358 337.411C546.71 337.2 546.991 336.883 547.203 336.46L549.95 330.544L555.866 327.798C556.288 327.586 556.605 327.305 556.817 326.952C557.028 326.6 557.133 326.248 557.133 325.896C557.133 325.544 557.028 325.192 556.817 324.839C556.605 324.487 556.288 324.206 555.866 323.994L549.95 321.248L547.203 315.331C546.991 314.909 546.71 314.592 546.358 314.381C546.005 314.169 545.653 314.064 545.301 314.064C544.949 314.064 544.597 314.169 544.245 314.381C543.893 314.592 543.611 314.909 543.4 315.331L540.653 321.248L534.737 323.994C534.314 324.206 533.997 324.487 533.786 324.839C533.574 325.192 533.469 325.544 533.469 325.896C533.469 326.248 533.574 326.6 533.786 326.952C533.997 327.305 534.314 327.586 534.737 327.798L540.653 330.544ZM535.178 326.884L541.416 329.781L544.313 336.019C544.449 336.288 544.606 336.445 544.766 336.542C544.988 336.674 545.161 336.714 545.301 336.714C545.441 336.714 545.615 336.674 545.836 336.542C545.996 336.445 546.153 336.288 546.29 336.019L549.186 329.781L555.424 326.884C555.693 326.748 555.85 326.591 555.947 326.431C556.079 326.21 556.119 326.036 556.119 325.896C556.119 325.756 556.079 325.582 555.947 325.361C555.85 325.201 555.693 325.044 555.424 324.907L549.186 322.011L546.29 315.773C546.153 315.504 545.996 315.347 545.836 315.25C545.615 315.118 545.441 315.078 545.301 315.078C545.161 315.078 544.988 315.118 544.766 315.25C544.606 315.347 544.449 315.504 544.313 315.773L541.416 322.011L535.178 324.907C534.909 325.044 534.752 325.201 534.655 325.361C534.523 325.582 534.483 325.756 534.483 325.896C534.483 326.036 534.523 326.209 534.655 326.431C534.752 326.591 534.909 326.748 535.178 326.884Z" fill="#F07748"/>
<path d="M686.274 188.641C686.274 183.973 690.058 180.189 694.726 180.189H915.145C919.813 180.189 923.597 183.973 923.597 188.641V342.461C923.597 347.129 919.813 350.913 915.145 350.913H694.726C690.058 350.913 686.274 347.129 686.274 342.461V188.641Z" fill="white"/>
<path fill-rule="evenodd" clip-rule="evenodd" d="M915.145 181.204H694.726C690.618 181.204 687.289 184.533 687.289 188.641V342.461C687.289 346.569 690.618 349.899 694.726 349.899H915.145C919.253 349.899 922.583 346.569 922.583 342.461V188.641C922.583 184.533 919.253 181.204 915.145 181.204ZM694.726 180.189C690.058 180.189 686.274 183.973 686.274 188.641V342.461C686.274 347.129 690.058 350.913 694.726 350.913H915.145C919.813 350.913 923.597 347.129 923.597 342.461V188.641C923.597 183.973 919.813 180.189 915.145 180.189H694.726Z" fill="#F07748"/>
<path d="M756.592 313.387C756.592 305.359 763.101 298.851 771.129 298.851H838.742C846.771 298.851 853.279 305.359 853.279 313.387V313.387C853.279 321.416 846.771 327.924 838.742 327.924H771.129C763.101 327.924 756.592 321.416 756.592 313.387V313.387Z" fill="#F07748" fill-opacity="0.5"/>
<path fill-rule="evenodd" clip-rule="evenodd" d="M813.287 205.563C811.374 205.681 809.412 205.998 807.697 206.465C802.523 207.873 797.981 210.694 794.379 214.737C790.564 219.019 788.218 224.358 787.637 230.084C787.607 230.383 787.582 230.64 787.582 230.655C787.582 230.673 788.385 230.682 789.943 230.682H792.304L792.322 230.46C792.332 230.338 792.376 229.988 792.42 229.682C793.057 225.242 794.938 221.201 797.952 217.799C798.349 217.351 799.319 216.381 799.769 215.982C801.933 214.065 804.332 212.619 807.002 211.623C810.358 210.37 814.108 209.943 817.721 210.4C823.392 211.117 828.567 213.961 832.276 218.398C835.056 221.724 836.81 225.768 837.352 230.104C837.494 231.242 837.553 232.919 837.49 234.068C837.337 236.861 836.703 239.515 835.593 242.019C833.854 245.94 831.013 249.319 827.448 251.707C823.136 254.595 817.973 255.914 812.823 255.444L812.467 255.411V257.766V260.121L812.608 260.137C813.339 260.222 815.611 260.25 816.525 260.186C817.951 260.085 819.013 259.946 820.261 259.697C824.936 258.764 829.221 256.65 832.842 253.491C835.233 251.405 837.241 248.926 838.815 246.117C839.123 245.568 839.748 244.291 840.011 243.674C841.251 240.765 841.925 237.937 842.169 234.618C842.214 234 842.214 231.754 842.168 231.125C841.951 228.109 841.347 225.419 840.293 222.762C837.643 216.084 832.273 210.562 825.689 207.745C822.888 206.546 820.133 205.869 816.969 205.6C816.377 205.549 813.905 205.525 813.287 205.563ZM812.494 225.94V235.222H820.288H828.081V232.871V230.521H822.639H817.197V223.589V216.658H814.846H812.494V225.94ZM767.749 253.679V273.158H784.417H801.086L805.016 269.228L808.947 265.299V249.75V234.201H788.348H767.749V253.679ZM778.375 237.463C779.366 237.761 780.082 238.492 780.359 239.489C780.408 239.664 780.417 239.77 780.417 240.179C780.418 240.601 780.41 240.692 780.357 240.891C780.105 241.824 779.397 242.572 778.476 242.878C778.063 243.016 777.477 243.044 777.034 242.949C775.97 242.72 775.148 241.923 774.867 240.847C774.814 240.645 774.805 240.544 774.806 240.179C774.807 239.803 774.816 239.717 774.877 239.488C775.158 238.442 775.981 237.648 777.02 237.422C777.204 237.382 777.335 237.374 777.692 237.382C778.079 237.39 778.166 237.4 778.375 237.463ZM799.665 237.423C800.164 237.526 800.633 237.771 801.002 238.123C801.27 238.378 801.439 238.6 801.592 238.897C801.829 239.358 801.924 239.801 801.898 240.325C801.791 242.494 799.366 243.737 797.549 242.552C796.866 242.107 796.401 241.387 796.287 240.598C796.239 240.266 796.269 239.756 796.354 239.448C796.636 238.421 797.469 237.639 798.52 237.413C798.783 237.357 799.368 237.362 799.665 237.423ZM805.937 254.996V263.996L802.866 264.003L799.796 264.01L799.789 267.079L799.782 270.149H785.27H770.758V258.072V245.996H788.348H805.937V254.996ZM775.139 253.115V255.882H777.894H780.648V253.115V250.348H777.894H775.139V253.115ZM785.579 250.381C785.572 250.4 785.569 251.642 785.573 253.142L785.58 255.869L788.341 255.876L791.103 255.883L791.096 253.122L791.089 250.361L788.34 250.355C786.155 250.349 785.589 250.355 785.579 250.381ZM796.065 250.366C796.055 250.376 796.047 251.621 796.047 253.133V255.882H798.802H801.556V253.115V250.348H798.82C797.314 250.348 796.075 250.356 796.065 250.366ZM775.119 263.009L775.126 265.756H777.88H780.635L780.642 263.009L780.648 260.262H777.88H775.112L775.119 263.009ZM785.573 263.009L785.58 265.756L788.341 265.763L791.102 265.77V263.016V260.262H788.334H785.566L785.573 263.009Z" fill="#FCF1D3"/>
<mask id="path-92-inside-1_204_660" fill="white">
<path fill-rule="evenodd" clip-rule="evenodd" d="M813.287 205.563C811.374 205.681 809.412 205.998 807.697 206.465C802.523 207.873 797.981 210.694 794.379 214.737C790.564 219.019 788.218 224.358 787.637 230.084C787.607 230.383 787.582 230.64 787.582 230.655C787.582 230.673 788.385 230.682 789.943 230.682H792.304L792.322 230.46C792.332 230.338 792.376 229.988 792.42 229.682C793.057 225.242 794.938 221.201 797.952 217.799C798.349 217.351 799.319 216.381 799.769 215.982C801.933 214.065 804.332 212.619 807.002 211.623C810.358 210.37 814.108 209.943 817.721 210.4C823.392 211.117 828.567 213.961 832.276 218.398C835.056 221.724 836.81 225.768 837.352 230.104C837.494 231.242 837.553 232.919 837.49 234.068C837.337 236.861 836.703 239.515 835.593 242.019C833.854 245.94 831.013 249.319 827.448 251.707C823.136 254.595 817.973 255.914 812.823 255.444L812.467 255.411V257.766V260.121L812.608 260.137C813.339 260.222 815.611 260.25 816.525 260.186C817.951 260.085 819.013 259.946 820.261 259.697C824.936 258.764 829.221 256.65 832.842 253.491C835.233 251.405 837.241 248.926 838.815 246.117C839.123 245.568 839.748 244.291 840.011 243.674C841.251 240.765 841.925 237.937 842.169 234.618C842.214 234 842.214 231.754 842.168 231.125C841.951 228.109 841.347 225.419 840.293 222.762C837.643 216.084 832.273 210.562 825.689 207.745C822.888 206.546 820.133 205.869 816.969 205.6C816.377 205.549 813.905 205.525 813.287 205.563ZM812.494 225.94V235.222H820.288H828.081V232.871V230.521H822.639H817.197V223.589V216.658H814.846H812.494V225.94ZM767.749 253.679V273.158H784.417H801.086L805.016 269.228L808.947 265.299V249.75V234.201H788.348H767.749V253.679ZM778.375 237.463C779.366 237.761 780.082 238.492 780.359 239.489C780.408 239.664 780.417 239.77 780.417 240.179C780.418 240.601 780.41 240.692 780.357 240.891C780.105 241.824 779.397 242.572 778.476 242.878C778.063 243.016 777.477 243.044 777.034 242.949C775.97 242.72 775.148 241.923 774.867 240.847C774.814 240.645 774.805 240.544 774.806 240.179C774.807 239.803 774.816 239.717 774.877 239.488C775.158 238.442 775.981 237.648 777.02 237.422C777.204 237.382 777.335 237.374 777.692 237.382C778.079 237.39 778.166 237.4 778.375 237.463ZM799.665 237.423C800.164 237.526 800.633 237.771 801.002 238.123C801.27 238.378 801.439 238.6 801.592 238.897C801.829 239.358 801.924 239.801 801.898 240.325C801.791 242.494 799.366 243.737 797.549 242.552C796.866 242.107 796.401 241.387 796.287 240.598C796.239 240.266 796.269 239.756 796.354 239.448C796.636 238.421 797.469 237.639 798.52 237.413C798.783 237.357 799.368 237.362 799.665 237.423ZM805.937 254.996V263.996L802.866 264.003L799.796 264.01L799.789 267.079L799.782 270.149H785.27H770.758V258.072V245.996H788.348H805.937V254.996ZM775.139 253.115V255.882H777.894H780.648V253.115V250.348H777.894H775.139V253.115ZM785.579 250.381C785.572 250.4 785.569 251.642 785.573 253.142L785.58 255.869L788.341 255.876L791.103 255.883L791.096 253.122L791.089 250.361L788.34 250.355C786.155 250.349 785.589 250.355 785.579 250.381ZM796.065 250.366C796.055 250.376 796.047 251.621 796.047 253.133V255.882H798.802H801.556V253.115V250.348H798.82C797.314 250.348 796.075 250.356 796.065 250.366ZM775.119 263.009L775.126 265.756H777.88H780.635L780.642 263.009L780.648 260.262H777.88H775.112L775.119 263.009ZM785.573 263.009L785.58 265.756L788.341 265.763L791.102 265.77V263.016V260.262H788.334H785.566L785.573 263.009Z"/>
</mask>
<path fill-rule="evenodd" clip-rule="evenodd" d="M813.287 205.563C811.374 205.681 809.412 205.998 807.697 206.465C802.523 207.873 797.981 210.694 794.379 214.737C790.564 219.019 788.218 224.358 787.637 230.084C787.607 230.383 787.582 230.64 787.582 230.655C787.582 230.673 788.385 230.682 789.943 230.682H792.304L792.322 230.46C792.332 230.338 792.376 229.988 792.42 229.682C793.057 225.242 794.938 221.201 797.952 217.799C798.349 217.351 799.319 216.381 799.769 215.982C801.933 214.065 804.332 212.619 807.002 211.623C810.358 210.37 814.108 209.943 817.721 210.4C823.392 211.117 828.567 213.961 832.276 218.398C835.056 221.724 836.81 225.768 837.352 230.104C837.494 231.242 837.553 232.919 837.49 234.068C837.337 236.861 836.703 239.515 835.593 242.019C833.854 245.94 831.013 249.319 827.448 251.707C823.136 254.595 817.973 255.914 812.823 255.444L812.467 255.411V257.766V260.121L812.608 260.137C813.339 260.222 815.611 260.25 816.525 260.186C817.951 260.085 819.013 259.946 820.261 259.697C824.936 258.764 829.221 256.65 832.842 253.491C835.233 251.405 837.241 248.926 838.815 246.117C839.123 245.568 839.748 244.291 840.011 243.674C841.251 240.765 841.925 237.937 842.169 234.618C842.214 234 842.214 231.754 842.168 231.125C841.951 228.109 841.347 225.419 840.293 222.762C837.643 216.084 832.273 210.562 825.689 207.745C822.888 206.546 820.133 205.869 816.969 205.6C816.377 205.549 813.905 205.525 813.287 205.563ZM812.494 225.94V235.222H820.288H828.081V232.871V230.521H822.639H817.197V223.589V216.658H814.846H812.494V225.94ZM767.749 253.679V273.158H784.417H801.086L805.016 269.228L808.947 265.299V249.75V234.201H788.348H767.749V253.679ZM778.375 237.463C779.366 237.761 780.082 238.492 780.359 239.489C780.408 239.664 780.417 239.77 780.417 240.179C780.418 240.601 780.41 240.692 780.357 240.891C780.105 241.824 779.397 242.572 778.476 242.878C778.063 243.016 777.477 243.044 777.034 242.949C775.97 242.72 775.148 241.923 774.867 240.847C774.814 240.645 774.805 240.544 774.806 240.179C774.807 239.803 774.816 239.717 774.877 239.488C775.158 238.442 775.981 237.648 777.02 237.422C777.204 237.382 777.335 237.374 777.692 237.382C778.079 237.39 778.166 237.4 778.375 237.463ZM799.665 237.423C800.164 237.526 800.633 237.771 801.002 238.123C801.27 238.378 801.439 238.6 801.592 238.897C801.829 239.358 801.924 239.801 801.898 240.325C801.791 242.494 799.366 243.737 797.549 242.552C796.866 242.107 796.401 241.387 796.287 240.598C796.239 240.266 796.269 239.756 796.354 239.448C796.636 238.421 797.469 237.639 798.52 237.413C798.783 237.357 799.368 237.362 799.665 237.423ZM805.937 254.996V263.996L802.866 264.003L799.796 264.01L799.789 267.079L799.782 270.149H785.27H770.758V258.072V245.996H788.348H805.937V254.996ZM775.139 253.115V255.882H777.894H780.648V253.115V250.348H777.894H775.139V253.115ZM785.579 250.381C785.572 250.4 785.569 251.642 785.573 253.142L785.58 255.869L788.341 255.876L791.103 255.883L791.096 253.122L791.089 250.361L788.34 250.355C786.155 250.349 785.589 250.355 785.579 250.381ZM796.065 250.366C796.055 250.376 796.047 251.621 796.047 253.133V255.882H798.802H801.556V253.115V250.348H798.82C797.314 250.348 796.075 250.356 796.065 250.366ZM775.119 263.009L775.126 265.756H777.88H780.635L780.642 263.009L780.648 260.262H777.88H775.112L775.119 263.009ZM785.573 263.009L785.58 265.756L788.341 265.763L791.102 265.77V263.016V260.262H788.334H785.566L785.573 263.009Z" fill="#FCF1D3" stroke="#F07748" stroke-width="2" mask="url(#path-92-inside-1_204_660)"/>
</svg>
