<svg width="300" height="300" viewBox="0 0 300 300" fill="none" xmlns="http://www.w3.org/2000/svg">
<rect width="300" height="300" fill="white"/>
<path d="M150 133.5C150.708 133.5 151.302 133.26 151.781 132.781C152.26 132.302 152.5 131.708 152.5 131C152.5 130.292 152.26 129.698 151.781 129.219C151.302 128.74 150.708 128.5 150 128.5C149.292 128.5 148.698 128.74 148.219 129.219C147.74 129.698 147.5 130.292 147.5 131C147.5 131.708 147.74 132.302 148.219 132.781C148.698 133.26 149.292 133.5 150 133.5ZM147.5 123.5H152.5V108.5H147.5V123.5ZM150 146C146.542 146 143.292 145.344 140.25 144.031C137.208 142.719 134.562 140.938 132.312 138.688C130.062 136.438 128.281 133.792 126.969 130.75C125.656 127.708 125 124.458 125 121C125 117.542 125.656 114.292 126.969 111.25C128.281 108.208 130.062 105.562 132.312 103.312C134.562 101.062 137.208 99.2813 140.25 97.9688C143.292 96.6562 146.542 96 150 96C153.458 96 156.708 96.6562 159.75 97.9688C162.792 99.2813 165.438 101.062 167.688 103.312C169.938 105.562 171.719 108.208 173.031 111.25C174.344 114.292 175 117.542 175 121C175 124.458 174.344 127.708 173.031 130.75C171.719 133.792 169.938 136.438 167.688 138.688C165.438 140.938 162.792 142.719 159.75 144.031C156.708 145.344 153.458 146 150 146ZM150 141C155.583 141 160.313 139.063 164.188 135.188C168.063 131.313 170 126.583 170 121C170 115.417 168.063 110.688 164.188 106.813C160.313 102.938 155.583 101 150 101C144.417 101 139.688 102.938 135.813 106.813C131.938 110.688 130 115.417 130 121C130 126.583 131.938 131.313 135.813 135.188C139.688 139.063 144.417 141 150 141Z" fill="#DC3545" fill-opacity="0.8"/>
<path d="M91.072 170.76L92.928 171.368C91.936 172.824 90.32 174.2 88.832 175.032C88.56 174.648 87.888 173.864 87.504 173.512C88.896 172.872 90.288 171.848 91.072 170.76ZM94.976 171.832L96.32 170.728C97.664 171.512 99.472 172.744 100.352 173.64L98.896 174.904C98.096 174.024 96.352 172.712 94.976 171.832ZM94.064 174.504C92.784 176.152 90.288 178.008 87.728 179.128C87.504 178.664 87.024 177.928 86.656 177.512C89.28 176.472 91.792 174.472 92.992 172.76H94.96C96.656 174.84 99.136 176.44 101.584 177.24C101.136 177.736 100.704 178.44 100.384 179C98.112 178.008 95.424 176.184 94.064 174.504ZM89.504 176.92H98.592V182.424H96.64V178.6H91.36V182.44H89.504V176.92ZM90.368 180.312H97.616V181.992H90.368V180.312ZM92.96 167.416H94.944V169.688H92.96V167.416ZM87.136 168.696H100.864V172.152H98.896V170.424H89.008V172.152H87.136V168.696ZM106.608 170.344V170.888H113.264V170.344H106.608ZM106.608 168.888V169.416H113.264V168.888H106.608ZM104.752 167.912H115.2V171.864H104.752V167.912ZM106.272 176.728V177.304H113.696V176.728H106.272ZM106.272 175.224V175.784H113.696V175.224H106.272ZM104.464 174.2H115.584V178.312H104.464V174.2ZM109.04 174.536H110.912V181.4H109.04V174.536ZM102.72 172.36H117.296V173.72H102.72V172.36ZM104.144 178.84H115.888V180.072H104.144V178.84ZM102.688 180.648H117.328V182.056H102.688V180.648ZM125.264 168.488C125.168 168.904 125.072 169.416 124.992 169.816C124.832 170.536 124.64 171.528 124.464 172.344C123.936 174.6 122.656 179.16 120.976 181.864L118.88 181.032C120.784 178.472 121.984 174.248 122.432 172.232C122.736 170.792 122.912 169.432 122.896 168.232L125.264 168.488ZM130.784 170.088C131.76 171.48 133.104 174.456 133.6 175.976L131.568 176.92C131.152 175.144 130.016 172.328 128.864 170.904L130.784 170.088ZM118.784 171.768C119.36 171.8 119.904 171.784 120.496 171.768C121.776 171.736 124.816 171.384 126 171.384C127.696 171.384 128.896 172.136 128.896 174.456C128.896 176.344 128.656 178.936 127.984 180.312C127.456 181.432 126.56 181.784 125.36 181.784C124.736 181.784 123.984 181.688 123.44 181.56L123.088 179.448C123.712 179.624 124.624 179.784 125.04 179.784C125.584 179.784 126 179.624 126.24 179.096C126.688 178.2 126.896 176.248 126.896 174.68C126.896 173.4 126.352 173.208 125.344 173.208C124.4 173.208 121.632 173.56 120.752 173.672C120.288 173.736 119.456 173.848 118.976 173.928L118.784 171.768ZM130.496 167.88C130.896 168.456 131.456 169.48 131.76 170.072L130.48 170.616C130.144 169.96 129.648 169.016 129.216 168.392L130.496 167.88ZM132.384 167.144C132.8 167.752 133.392 168.776 133.68 169.336L132.4 169.88C132.08 169.208 131.552 168.28 131.12 167.672L132.384 167.144ZM134.896 171.72H149.136V173.704H134.896V171.72ZM143.104 172.52C144.064 176.184 146.096 179.224 149.488 180.568C149.008 181 148.368 181.832 148.048 182.392C144.384 180.68 142.384 177.368 141.168 172.968L143.104 172.52ZM140.896 167.416H143.008C142.928 172.296 142.896 179.08 136.032 182.392C135.728 181.864 135.136 181.176 134.576 180.76C141.136 177.832 140.848 171.752 140.896 167.416ZM152.624 169.528C154.96 169.8 156.912 169.832 158.608 169.704C160.064 169.608 161.376 169.352 162.704 168.936L162.96 170.76C161.808 171.08 160.416 171.352 159.024 171.448C157.376 171.576 155.168 171.592 152.736 171.352L152.624 169.528ZM152.336 172.872C155.216 173.16 157.808 173.112 159.728 172.92C161.456 172.776 162.656 172.456 163.584 172.184L163.904 174.072C162.944 174.312 161.76 174.536 160.464 174.68C158.448 174.904 155.328 174.952 152.448 174.76L152.336 172.872ZM157.68 169.976C157.52 169.384 157.328 168.792 157.104 168.168L159.248 167.928C159.44 169.464 159.84 170.872 160.256 172.104C160.64 173.224 161.424 174.872 162.16 175.992C162.384 176.312 162.592 176.552 162.88 176.824L161.92 178.296C161.024 178.104 159.28 177.912 158.112 177.784L158.272 176.248C158.944 176.312 159.824 176.392 160.288 176.44C159.44 175.016 158.848 173.624 158.448 172.456C158.048 171.32 157.888 170.744 157.68 169.976ZM155.408 176.6C155.024 177.128 154.688 177.672 154.688 178.36C154.688 179.544 155.808 180.024 157.936 180.024C159.44 180.024 160.8 179.912 161.952 179.688L161.84 181.72C160.72 181.896 159.248 182.008 157.936 182.008C154.752 182.008 152.768 181.064 152.72 178.792C152.704 177.752 153.04 176.968 153.424 176.216L155.408 176.6ZM170.144 169.576C170.032 170.136 169.952 171.08 169.952 171.528C169.952 172.568 169.952 173.752 170.048 174.92C170.272 177.224 170.752 178.808 171.76 178.808C172.528 178.808 173.152 176.92 173.456 175.656L175.072 177.592C174 180.392 173.008 181.352 171.728 181.352C169.952 181.352 168.432 179.784 167.984 175.496C167.824 174.024 167.808 172.136 167.808 171.16C167.808 170.728 167.792 170.04 167.68 169.544L170.144 169.576ZM178.144 169.928C179.664 171.768 180.896 175.768 181.072 178.216L178.96 179.048C178.72 176.456 177.856 172.584 176.112 170.6L178.144 169.928ZM189.568 168.232C189.456 168.68 189.312 169.4 189.232 169.752C189.008 170.84 188.608 172.792 188.176 174.424C187.6 176.664 186.528 179.928 185.648 181.832L183.424 181.08C184.368 179.464 185.584 176.12 186.192 173.88C186.592 172.376 186.96 170.616 187.072 169.672C187.152 169.08 187.168 168.424 187.12 168.04L189.568 168.232ZM185.488 170.632C187.44 170.632 189.696 170.328 191.776 169.832V171.832C189.792 172.296 187.28 172.568 185.472 172.568C184.688 172.568 184.096 172.536 183.536 172.504L183.472 170.504C184.304 170.6 184.832 170.632 185.488 170.632ZM190.512 173.08C191.408 172.984 192.56 172.92 193.6 172.92C194.512 172.92 195.472 172.968 196.4 173.064L196.368 174.984C195.552 174.888 194.576 174.776 193.616 174.776C192.512 174.776 191.52 174.824 190.512 174.952V173.08ZM191.376 177.096C191.264 177.56 191.168 178.072 191.168 178.424C191.168 179.128 191.632 179.656 193.36 179.656C194.432 179.656 195.536 179.544 196.672 179.336L196.592 181.368C195.696 181.496 194.624 181.592 193.344 181.592C190.64 181.592 189.2 180.68 189.2 179.064C189.2 178.312 189.344 177.544 189.472 176.92L191.376 177.096ZM209.184 168.456C209.04 168.904 208.896 169.688 208.8 170.072C208.128 172.904 207.088 176.232 205.552 178.168C204.08 180.024 203.056 180.856 201.584 180.856C200.256 180.856 199.04 179.736 199.04 177.672C199.04 175.528 200.272 173.24 202.144 172.04C203.856 170.936 205.472 170.536 207.184 170.536C210.48 170.536 212.848 172.76 212.848 176.088C212.848 179.48 210.432 181.432 207.088 181.944L205.872 180.088C209.392 179.784 210.768 177.992 210.768 175.992C210.768 173.816 209.28 172.312 206.976 172.312C205.312 172.312 204.016 172.92 202.896 173.736C201.648 174.616 200.912 176.184 200.912 177.496C200.912 178.28 201.248 178.776 201.808 178.776C202.64 178.776 203.52 177.752 204.352 176.488C205.584 174.68 206.512 171.736 206.848 169.768C206.928 169.304 206.976 168.632 206.96 168.248L209.184 168.456ZM202.432 168.984C202.512 169.528 202.64 170.056 202.768 170.52C203.264 172.312 204.112 174.76 204.848 175.912C205.392 176.776 206.144 177.784 206.896 178.488L205.264 179.784C204.64 179.08 204.16 178.472 203.648 177.656C202.672 176.232 201.712 173.672 200.976 171.304C200.8 170.744 200.608 170.232 200.32 169.656L202.432 168.984ZM77.5062 189.184C77.3462 189.392 77.0422 189.776 76.8982 190C76.1462 191.248 74.6262 193.28 73.0422 194.4L71.3782 193.072C72.6742 192.288 73.9222 190.88 74.3382 190.096C73.3622 190.096 66.9942 190.096 65.9862 190.096C65.3302 190.096 64.7862 190.128 64.0342 190.208V187.968C64.6582 188.064 65.3302 188.144 65.9862 188.144C66.9942 188.144 73.7782 188.144 74.6102 188.144C75.0582 188.144 75.9382 188.08 76.2422 188L77.5062 189.184ZM70.9942 191.328C70.9942 195.296 70.8982 198.56 66.5462 200.912L64.6742 199.392C65.2022 199.216 65.7782 198.944 66.3702 198.496C68.3862 197.088 68.7702 195.408 68.7702 192.784C68.7702 192.272 68.7542 191.856 68.6742 191.328H70.9942ZM86.3062 190.512C86.6102 191.184 87.3942 193.28 87.6182 194.016L85.7142 194.672C85.5062 193.904 84.8022 191.968 84.4182 191.136L86.3062 190.512ZM92.2102 191.664C92.0342 192.192 91.9382 192.528 91.8422 192.848C91.4262 194.464 90.7382 196.128 89.6502 197.52C88.1622 199.456 86.1782 200.784 84.3062 201.504L82.6262 199.792C84.3702 199.312 86.6102 198.096 87.9222 196.432C89.0102 195.088 89.7942 192.96 89.9702 190.944L92.2102 191.664ZM82.5942 191.344C82.9942 192.16 83.7782 194.112 84.0822 195.008L82.1302 195.728C81.8742 194.88 81.0582 192.736 80.6742 192.048L82.5942 191.344ZM107.09 188.272C107.09 188.784 107.506 189.2 108.018 189.2C108.53 189.2 108.946 188.784 108.946 188.272C108.946 187.76 108.53 187.344 108.018 187.344C107.506 187.344 107.09 187.76 107.09 188.272ZM106.098 188.272C106.098 187.216 106.962 186.352 108.018 186.352C109.074 186.352 109.938 187.216 109.938 188.272C109.938 189.328 109.074 190.192 108.018 190.192C106.962 190.192 106.098 189.328 106.098 188.272ZM108.05 189.536C107.89 189.84 107.778 190.304 107.698 190.64C107.33 192.208 106.626 194.704 105.282 196.48C103.842 198.4 101.714 199.984 98.8502 200.896L97.1062 198.976C100.29 198.24 102.098 196.848 103.378 195.232C104.45 193.904 105.058 192.08 105.266 190.704C104.29 190.704 99.0102 190.704 97.8102 190.704C97.0742 190.704 96.3222 190.752 95.9062 190.784V188.512C96.3862 188.576 97.2822 188.656 97.8102 188.656C99.0102 188.656 104.322 188.656 105.218 188.656C105.538 188.656 106.05 188.64 106.466 188.528L108.05 189.536ZM112.258 188.656C112.898 188.672 113.506 188.688 113.938 188.688C115.106 188.688 121.602 188.688 122.754 188.688C123.154 188.688 123.746 188.688 124.338 188.672C124.306 189.152 124.306 189.728 124.306 190.224C124.306 191.2 124.306 197.088 124.306 198.064C124.306 198.688 124.322 200.224 124.338 200.288H122.114C122.114 200.224 122.162 198.976 122.162 198.096C122.162 197.168 122.162 190.736 122.162 190.736H114.418C114.418 190.736 114.418 197.152 114.418 198.096C114.418 198.864 114.434 200.208 114.434 200.288H112.242C112.242 200.208 112.274 198.8 112.274 198.032C112.274 197.072 112.274 191.152 112.274 190.224C112.274 189.76 112.274 189.12 112.258 188.656ZM122.946 197.376V199.408H113.33V197.376H122.946ZM127.698 192.592C128.29 192.64 129.442 192.704 130.274 192.704C132.162 192.704 137.442 192.704 138.866 192.704C139.618 192.704 140.322 192.624 140.754 192.592V195.12C140.37 195.104 139.554 195.024 138.882 195.024C137.426 195.024 132.162 195.024 130.274 195.024C129.378 195.024 128.306 195.072 127.698 195.12V192.592ZM153.138 188.096C153.586 188.768 154.242 189.792 154.594 190.528L153.218 191.136C152.738 190.128 152.386 189.488 151.794 188.672L153.138 188.096ZM155.234 187.232C155.714 187.872 156.386 188.864 156.738 189.584L155.394 190.256C154.882 189.232 154.498 188.64 153.906 187.856L155.234 187.232ZM146.77 198.704C146.77 197.488 146.77 190.864 146.77 189.504C146.77 188.928 146.706 188.144 146.594 187.584H149.106C149.042 188.144 148.962 188.848 148.962 189.504C148.962 191.28 148.962 197.52 148.962 198.704C148.962 199.168 149.042 200.288 149.106 200.928H146.61C146.706 200.304 146.77 199.344 146.77 198.704ZM148.482 191.712C150.626 192.304 154.066 193.568 155.65 194.352L154.738 196.56C152.93 195.616 150.226 194.592 148.482 194.016V191.712ZM159.346 189.04C159.97 189.024 160.61 188.992 160.914 188.96C162.242 188.832 164.882 188.608 167.81 188.352C169.474 188.224 171.218 188.112 172.354 188.064L172.37 190.128C171.506 190.128 170.13 190.144 169.266 190.336C167.346 190.848 165.89 192.928 165.89 194.832C165.89 197.456 168.354 198.416 171.058 198.544L170.306 200.736C166.962 200.528 163.794 198.72 163.794 195.248C163.794 192.96 165.09 191.136 166.162 190.32C164.674 190.48 161.394 190.832 159.554 191.232L159.346 189.04ZM170.082 191.696C170.466 192.256 171.042 193.232 171.346 193.872L170.146 194.4C169.73 193.536 169.394 192.896 168.898 192.192L170.082 191.696ZM171.858 190.96C172.274 191.52 172.882 192.464 173.218 193.088L172.018 193.664C171.586 192.8 171.218 192.192 170.706 191.488L171.858 190.96ZM176.866 188.528C179.202 188.8 181.154 188.832 182.85 188.704C184.306 188.608 185.618 188.352 186.946 187.936L187.202 189.76C186.05 190.08 184.658 190.352 183.266 190.448C181.618 190.576 179.41 190.592 176.978 190.352L176.866 188.528ZM176.578 191.872C179.458 192.16 182.05 192.112 183.97 191.92C185.698 191.776 186.898 191.456 187.826 191.184L188.146 193.072C187.186 193.312 186.002 193.536 184.706 193.68C182.69 193.904 179.57 193.952 176.69 193.76L176.578 191.872ZM181.922 188.976C181.762 188.384 181.57 187.792 181.346 187.168L183.49 186.928C183.682 188.464 184.082 189.872 184.498 191.104C184.882 192.224 185.666 193.872 186.402 194.992C186.626 195.312 186.834 195.552 187.122 195.824L186.162 197.296C185.266 197.104 183.522 196.912 182.354 196.784L182.514 195.248C183.186 195.312 184.066 195.392 184.53 195.44C183.682 194.016 183.09 192.624 182.69 191.456C182.29 190.32 182.13 189.744 181.922 188.976ZM179.65 195.6C179.266 196.128 178.93 196.672 178.93 197.36C178.93 198.544 180.05 199.024 182.178 199.024C183.682 199.024 185.042 198.912 186.194 198.688L186.082 200.72C184.962 200.896 183.49 201.008 182.178 201.008C178.994 201.008 177.01 200.064 176.962 197.792C176.946 196.752 177.282 195.968 177.666 195.216L179.65 195.6ZM199.794 187.072C199.746 187.392 199.698 187.792 199.682 188.208C199.65 189.024 199.634 191.296 199.634 192.64C199.634 194.4 199.89 197.296 199.89 198.56C199.89 199.936 198.85 200.992 196.754 200.992C194.194 200.992 192.85 200.016 192.85 198.32C192.85 196.704 194.338 195.568 196.786 195.568C200.306 195.568 202.93 197.296 204.258 198.416L203.106 200.208C201.586 198.768 199.266 197.216 196.53 197.216C195.41 197.216 194.786 197.648 194.786 198.208C194.786 198.816 195.346 199.184 196.45 199.184C197.298 199.184 197.874 198.944 197.874 198.016C197.874 197.056 197.698 194.192 197.698 192.64C197.698 191.104 197.714 189.072 197.714 188.16C197.714 187.872 197.682 187.376 197.618 187.072H199.794ZM193.154 188.56C194.29 188.752 196.13 188.912 197.106 188.912C199.282 188.912 201.378 188.8 203.714 188.432L203.698 190.256C202.066 190.48 199.522 190.672 197.122 190.672C196.098 190.672 194.242 190.528 193.186 190.4L193.154 188.56ZM193.058 192.016C194.114 192.208 196.066 192.32 196.914 192.32C199.874 192.32 201.938 192.128 203.906 191.872L203.89 193.76C201.682 194.016 199.938 194.112 196.898 194.112C195.954 194.112 194.146 194.032 193.09 193.904L193.058 192.016ZM217.998 187.456C217.95 187.712 217.918 188.416 217.902 188.832C217.87 189.92 217.87 190.832 217.838 191.648C217.806 193.072 217.758 194.8 217.598 195.616C217.422 196.464 217.006 196.672 216.19 196.672C215.63 196.672 214.334 196.528 213.79 196.432L213.822 194.672C214.318 194.784 214.99 194.864 215.31 194.864C215.614 194.864 215.758 194.816 215.806 194.496C215.886 193.888 215.918 192.736 215.95 191.632C215.95 190.8 215.95 189.872 215.95 188.928C215.95 188.512 215.886 187.76 215.838 187.456H217.998ZM211.694 187.936C211.63 188.464 211.598 188.912 211.598 189.6C211.598 191.056 211.534 195.28 211.566 196.592C211.614 198.176 211.742 198.528 214.142 198.528C215.71 198.528 217.742 198.336 218.926 198.112L218.846 200.304C217.774 200.416 215.822 200.56 214.286 200.56C210.158 200.56 209.646 199.68 209.582 196.912C209.55 195.536 209.566 190.672 209.566 189.712C209.566 189.04 209.518 188.496 209.438 187.936H211.694ZM206.35 191.552C206.798 191.552 207.534 191.52 208.35 191.424C209.966 191.28 215.982 190.688 219.07 190.496C219.502 190.464 220.126 190.416 220.606 190.384V192.336C220.318 192.32 219.47 192.352 219.054 192.352C216.558 192.432 210.334 193.104 208.478 193.312C207.982 193.376 206.99 193.52 206.558 193.584L206.35 191.552ZM230.99 188.128C230.814 188.336 230.654 188.608 230.478 188.88C229.678 190.016 228.558 192.064 227.774 193.488C228.366 193.136 228.99 192.992 229.598 192.992C230.798 192.992 231.518 193.744 231.582 195.088C231.614 195.792 231.582 197.072 231.662 197.744C231.726 198.368 232.158 198.624 232.686 198.624C234.078 198.624 234.942 196.816 235.39 194.832L237.134 196.24C236.286 198.992 234.814 200.816 232.35 200.816C230.574 200.816 229.758 199.744 229.678 198.592C229.63 197.728 229.63 196.432 229.582 195.776C229.534 195.216 229.23 194.88 228.654 194.88C227.566 194.88 226.654 196 226.094 197.296C225.662 198.224 225.118 200.016 224.878 200.864L222.622 200.096C223.79 196.896 227.07 190.368 227.934 188.832C228.126 188.416 228.43 187.888 228.718 187.216L230.99 188.128Z" fill="#DC3545" fill-opacity="0.8"/>
</svg>
