<svg width="300" height="300" viewBox="0 0 300 300" fill="none" xmlns="http://www.w3.org/2000/svg">
<rect width="300" height="300" fill="white"/>
<path d="M150 132.5C150.708 132.5 151.302 132.26 151.781 131.781C152.26 131.302 152.5 130.708 152.5 130C152.5 129.292 152.26 128.698 151.781 128.219C151.302 127.74 150.708 127.5 150 127.5C149.292 127.5 148.698 127.74 148.219 128.219C147.74 128.698 147.5 129.292 147.5 130C147.5 130.708 147.74 131.302 148.219 131.781C148.698 132.26 149.292 132.5 150 132.5ZM147.5 122.5H152.5V107.5H147.5V122.5ZM150 145C146.542 145 143.292 144.344 140.25 143.031C137.208 141.719 134.562 139.938 132.312 137.688C130.062 135.438 128.281 132.792 126.969 129.75C125.656 126.708 125 123.458 125 120C125 116.542 125.656 113.292 126.969 110.25C128.281 107.208 130.062 104.562 132.312 102.312C134.562 100.062 137.208 98.2813 140.25 96.9688C143.292 95.6562 146.542 95 150 95C153.458 95 156.708 95.6562 159.75 96.9688C162.792 98.2813 165.438 100.062 167.688 102.312C169.938 104.562 171.719 107.208 173.031 110.25C174.344 113.292 175 116.542 175 120C175 123.458 174.344 126.708 173.031 129.75C171.719 132.792 169.938 135.438 167.688 137.688C165.438 139.938 162.792 141.719 159.75 143.031C156.708 144.344 153.458 145 150 145ZM150 140C155.583 140 160.313 138.063 164.188 134.188C168.063 130.313 170 125.583 170 120C170 114.417 168.063 109.688 164.188 105.813C160.313 101.938 155.583 100 150 100C144.417 100 139.688 101.938 135.813 105.813C131.938 109.688 130 114.417 130 120C130 125.583 131.938 130.313 135.813 134.188C139.688 138.063 144.417 140 150 140Z" fill="#FF3300"/>
<path d="M21.6499 170.04L23.2739 170.572C22.4059 171.846 20.9919 173.05 19.6899 173.778C19.4519 173.442 18.8639 172.756 18.5279 172.448C19.7459 171.888 20.9639 170.992 21.6499 170.04ZM25.0659 170.978L26.2419 170.012C27.4179 170.698 28.9999 171.776 29.7699 172.56L28.4959 173.666C27.7959 172.896 26.2699 171.748 25.0659 170.978ZM24.2679 173.316C23.1479 174.758 20.9639 176.382 18.7239 177.362C18.5279 176.956 18.1079 176.312 17.7859 175.948C20.0819 175.038 22.2799 173.288 23.3299 171.79H25.0519C26.5359 173.61 28.7059 175.01 30.8479 175.71C30.4559 176.144 30.0779 176.76 29.7979 177.25C27.8099 176.382 25.4579 174.786 24.2679 173.316ZM20.2779 175.43H28.2299V180.246H26.5219V176.9H21.9019V180.26H20.2779V175.43ZM21.0339 178.398H27.3759V179.868H21.0339V178.398ZM23.3019 167.114H25.0379V169.102H23.3019V167.114ZM18.2059 168.234H30.2179V171.258H28.4959V169.746H19.8439V171.258H18.2059V168.234ZM35.2439 169.676V170.152H41.0679V169.676H35.2439ZM35.2439 168.402V168.864H41.0679V168.402H35.2439ZM33.6199 167.548H42.7619V171.006H33.6199V167.548ZM34.9499 175.262V175.766H41.4459V175.262H34.9499ZM34.9499 173.946V174.436H41.4459V173.946H34.9499ZM33.3679 173.05H43.0979V176.648H33.3679V173.05ZM37.3719 173.344H39.0099V179.35H37.3719V173.344ZM31.8419 171.44H44.5959V172.63H31.8419V171.44ZM33.0879 177.11H43.3639V178.188H33.0879V177.11ZM31.8139 178.692H44.6239V179.924H31.8139V178.692ZM51.5679 168.052C51.4839 168.416 51.3999 168.864 51.3299 169.214C51.1899 169.844 51.0219 170.712 50.8679 171.426C50.4059 173.4 49.2859 177.39 47.8159 179.756L45.9819 179.028C47.6479 176.788 48.6979 173.092 49.0899 171.328C49.3559 170.068 49.5099 168.878 49.4959 167.828L51.5679 168.052ZM56.3979 169.452C57.2519 170.67 58.4279 173.274 58.8619 174.604L57.0839 175.43C56.7199 173.876 55.7259 171.412 54.7179 170.166L56.3979 169.452ZM45.8979 170.922C46.4019 170.95 46.8779 170.936 47.3959 170.922C48.5159 170.894 51.1759 170.586 52.2119 170.586C53.6959 170.586 54.7459 171.244 54.7459 173.274C54.7459 174.926 54.5359 177.194 53.9479 178.398C53.4859 179.378 52.7019 179.686 51.6519 179.686C51.1059 179.686 50.4479 179.602 49.9719 179.49L49.6639 177.642C50.2099 177.796 51.0079 177.936 51.3719 177.936C51.8479 177.936 52.2119 177.796 52.4219 177.334C52.8139 176.55 52.9959 174.842 52.9959 173.47C52.9959 172.35 52.5199 172.182 51.6379 172.182C50.8119 172.182 48.3899 172.49 47.6199 172.588C47.2139 172.644 46.4859 172.742 46.0659 172.812L45.8979 170.922ZM56.1459 167.52C56.4959 168.024 56.9859 168.92 57.2519 169.438L56.1319 169.914C55.8379 169.34 55.4039 168.514 55.0259 167.968L56.1459 167.52ZM57.7979 166.876C58.1619 167.408 58.6799 168.304 58.9319 168.794L57.8119 169.27C57.5319 168.682 57.0699 167.87 56.6919 167.338L57.7979 166.876ZM59.9959 170.88H72.4559V172.616H59.9959V170.88ZM67.1779 171.58C68.0179 174.786 69.7959 177.446 72.7639 178.622C72.3439 179 71.7839 179.728 71.5039 180.218C68.2979 178.72 66.5479 175.822 65.4839 171.972L67.1779 171.58ZM65.2459 167.114H67.0939C67.0239 171.384 66.9959 177.32 60.9899 180.218C60.7239 179.756 60.2059 179.154 59.7159 178.79C65.4559 176.228 65.2039 170.908 65.2459 167.114ZM75.5079 168.962C77.5519 169.2 79.2599 169.228 80.7439 169.116C82.0179 169.032 83.1659 168.808 84.3279 168.444L84.5519 170.04C83.5439 170.32 82.3259 170.558 81.1079 170.642C79.6659 170.754 77.7339 170.768 75.6059 170.558L75.5079 168.962ZM75.2559 171.888C77.7759 172.14 80.0439 172.098 81.7239 171.93C83.2359 171.804 84.2859 171.524 85.0979 171.286L85.3779 172.938C84.5379 173.148 83.5019 173.344 82.3679 173.47C80.6039 173.666 77.8739 173.708 75.3539 173.54L75.2559 171.888ZM79.9319 169.354C79.7919 168.836 79.6239 168.318 79.4279 167.772L81.3039 167.562C81.4719 168.906 81.8219 170.138 82.1859 171.216C82.5219 172.196 83.2079 173.638 83.8519 174.618C84.0479 174.898 84.2299 175.108 84.4819 175.346L83.6419 176.634C82.8579 176.466 81.3319 176.298 80.3099 176.186L80.4499 174.842C81.0379 174.898 81.8079 174.968 82.2139 175.01C81.4719 173.764 80.9539 172.546 80.6039 171.524C80.2539 170.53 80.1139 170.026 79.9319 169.354ZM77.9439 175.15C77.6079 175.612 77.3139 176.088 77.3139 176.69C77.3139 177.726 78.2939 178.146 80.1559 178.146C81.4719 178.146 82.6619 178.048 83.6699 177.852L83.5719 179.63C82.5919 179.784 81.3039 179.882 80.1559 179.882C77.3699 179.882 75.6339 179.056 75.5919 177.068C75.5779 176.158 75.8719 175.472 76.2079 174.814L77.9439 175.15ZM90.8379 169.004C90.7399 169.494 90.6699 170.32 90.6699 170.712C90.6699 171.622 90.6699 172.658 90.7539 173.68C90.9499 175.696 91.3699 177.082 92.2519 177.082C92.9239 177.082 93.4699 175.43 93.7359 174.324L95.1499 176.018C94.2119 178.468 93.3439 179.308 92.2239 179.308C90.6699 179.308 89.3399 177.936 88.9479 174.184C88.8079 172.896 88.7939 171.244 88.7939 170.39C88.7939 170.012 88.7799 169.41 88.6819 168.976L90.8379 169.004ZM97.8379 169.312C99.1679 170.922 100.246 174.422 100.4 176.564L98.5519 177.292C98.3419 175.024 97.5859 171.636 96.0599 169.9L97.8379 169.312ZM107.834 167.828C107.736 168.22 107.61 168.85 107.54 169.158C107.344 170.11 106.994 171.818 106.616 173.246C106.112 175.206 105.174 178.062 104.404 179.728L102.458 179.07C103.284 177.656 104.348 174.73 104.88 172.77C105.23 171.454 105.552 169.914 105.65 169.088C105.72 168.57 105.734 167.996 105.692 167.66L107.834 167.828ZM104.264 169.928C105.972 169.928 107.946 169.662 109.766 169.228V170.978C108.03 171.384 105.832 171.622 104.25 171.622C103.564 171.622 103.046 171.594 102.556 171.566L102.5 169.816C103.228 169.9 103.69 169.928 104.264 169.928ZM108.66 172.07C109.444 171.986 110.452 171.93 111.362 171.93C112.16 171.93 113 171.972 113.812 172.056L113.784 173.736C113.07 173.652 112.216 173.554 111.376 173.554C110.41 173.554 109.542 173.596 108.66 173.708V172.07ZM109.416 175.584C109.318 175.99 109.234 176.438 109.234 176.746C109.234 177.362 109.64 177.824 111.152 177.824C112.09 177.824 113.056 177.726 114.05 177.544L113.98 179.322C113.196 179.434 112.258 179.518 111.138 179.518C108.772 179.518 107.512 178.72 107.512 177.306C107.512 176.648 107.638 175.976 107.75 175.43L109.416 175.584ZM124.998 168.024C124.872 168.416 124.746 169.102 124.662 169.438C124.074 171.916 123.164 174.828 121.82 176.522C120.532 178.146 119.636 178.874 118.348 178.874C117.186 178.874 116.122 177.894 116.122 176.088C116.122 174.212 117.2 172.21 118.838 171.16C120.336 170.194 121.75 169.844 123.248 169.844C126.132 169.844 128.204 171.79 128.204 174.702C128.204 177.67 126.09 179.378 123.164 179.826L122.1 178.202C125.18 177.936 126.384 176.368 126.384 174.618C126.384 172.714 125.082 171.398 123.066 171.398C121.61 171.398 120.476 171.93 119.496 172.644C118.404 173.414 117.76 174.786 117.76 175.934C117.76 176.62 118.054 177.054 118.544 177.054C119.272 177.054 120.042 176.158 120.77 175.052C121.848 173.47 122.66 170.894 122.954 169.172C123.024 168.766 123.066 168.178 123.052 167.842L124.998 168.024ZM119.09 168.486C119.16 168.962 119.272 169.424 119.384 169.83C119.818 171.398 120.56 173.54 121.204 174.548C121.68 175.304 122.338 176.186 122.996 176.802L121.568 177.936C121.022 177.32 120.602 176.788 120.154 176.074C119.3 174.828 118.46 172.588 117.816 170.516C117.662 170.026 117.494 169.578 117.242 169.074L119.09 168.486ZM142.568 169.536C142.428 169.718 142.162 170.054 142.036 170.25C141.378 171.342 140.048 173.12 138.662 174.1L137.206 172.938C138.34 172.252 139.432 171.02 139.796 170.334C138.942 170.334 133.37 170.334 132.488 170.334C131.914 170.334 131.438 170.362 130.78 170.432V168.472C131.326 168.556 131.914 168.626 132.488 168.626C133.37 168.626 139.306 168.626 140.034 168.626C140.426 168.626 141.196 168.57 141.462 168.5L142.568 169.536ZM136.87 171.412C136.87 174.884 136.786 177.74 132.978 179.798L131.34 178.468C131.802 178.314 132.306 178.076 132.824 177.684C134.588 176.452 134.924 174.982 134.924 172.686C134.924 172.238 134.91 171.874 134.84 171.412H136.87ZM150.268 170.698C150.534 171.286 151.22 173.12 151.416 173.764L149.75 174.338C149.568 173.666 148.952 171.972 148.616 171.244L150.268 170.698ZM155.434 171.706C155.28 172.168 155.196 172.462 155.112 172.742C154.748 174.156 154.146 175.612 153.194 176.83C151.892 178.524 150.156 179.686 148.518 180.316L147.048 178.818C148.574 178.398 150.534 177.334 151.682 175.878C152.634 174.702 153.32 172.84 153.474 171.076L155.434 171.706ZM147.02 171.426C147.37 172.14 148.056 173.848 148.322 174.632L146.614 175.262C146.39 174.52 145.676 172.644 145.34 172.042L147.02 171.426ZM168.454 168.738C168.454 169.186 168.818 169.55 169.266 169.55C169.714 169.55 170.078 169.186 170.078 168.738C170.078 168.29 169.714 167.926 169.266 167.926C168.818 167.926 168.454 168.29 168.454 168.738ZM167.586 168.738C167.586 167.814 168.342 167.058 169.266 167.058C170.19 167.058 170.946 167.814 170.946 168.738C170.946 169.662 170.19 170.418 169.266 170.418C168.342 170.418 167.586 169.662 167.586 168.738ZM169.294 169.844C169.154 170.11 169.056 170.516 168.986 170.81C168.664 172.182 168.048 174.366 166.872 175.92C165.612 177.6 163.75 178.986 161.244 179.784L159.718 178.104C162.504 177.46 164.086 176.242 165.206 174.828C166.144 173.666 166.676 172.07 166.858 170.866C166.004 170.866 161.384 170.866 160.334 170.866C159.69 170.866 159.032 170.908 158.668 170.936V168.948C159.088 169.004 159.872 169.074 160.334 169.074C161.384 169.074 166.032 169.074 166.816 169.074C167.096 169.074 167.544 169.06 167.908 168.962L169.294 169.844ZM172.976 169.074C173.536 169.088 174.068 169.102 174.446 169.102C175.468 169.102 181.152 169.102 182.16 169.102C182.51 169.102 183.028 169.102 183.546 169.088C183.518 169.508 183.518 170.012 183.518 170.446C183.518 171.3 183.518 176.452 183.518 177.306C183.518 177.852 183.532 179.196 183.546 179.252H181.6C181.6 179.196 181.642 178.104 181.642 177.334C181.642 176.522 181.642 170.894 181.642 170.894H174.866C174.866 170.894 174.866 176.508 174.866 177.334C174.866 178.006 174.88 179.182 174.88 179.252H172.962C172.962 179.182 172.99 177.95 172.99 177.278C172.99 176.438 172.99 171.258 172.99 170.446C172.99 170.04 172.99 169.48 172.976 169.074ZM182.328 176.704V178.482H173.914V176.704H182.328ZM186.486 172.518C187.004 172.56 188.012 172.616 188.74 172.616C190.392 172.616 195.012 172.616 196.258 172.616C196.916 172.616 197.532 172.546 197.91 172.518V174.73C197.574 174.716 196.86 174.646 196.272 174.646C194.998 174.646 190.392 174.646 188.74 174.646C187.956 174.646 187.018 174.688 186.486 174.73V172.518ZM208.746 168.584C209.138 169.172 209.712 170.068 210.02 170.712L208.816 171.244C208.396 170.362 208.088 169.802 207.57 169.088L208.746 168.584ZM210.58 167.828C211 168.388 211.588 169.256 211.896 169.886L210.72 170.474C210.272 169.578 209.936 169.06 209.418 168.374L210.58 167.828ZM203.174 177.866C203.174 176.802 203.174 171.006 203.174 169.816C203.174 169.312 203.118 168.626 203.02 168.136H205.218C205.162 168.626 205.092 169.242 205.092 169.816C205.092 171.37 205.092 176.83 205.092 177.866C205.092 178.272 205.162 179.252 205.218 179.812H203.034C203.118 179.266 203.174 178.426 203.174 177.866ZM204.672 171.748C206.548 172.266 209.558 173.372 210.944 174.058L210.146 175.99C208.564 175.164 206.198 174.268 204.672 173.764V171.748ZM214.178 169.41C214.724 169.396 215.284 169.368 215.55 169.34C216.712 169.228 219.022 169.032 221.584 168.808C223.04 168.696 224.566 168.598 225.56 168.556L225.574 170.362C224.818 170.362 223.614 170.376 222.858 170.544C221.178 170.992 219.904 172.812 219.904 174.478C219.904 176.774 222.06 177.614 224.426 177.726L223.768 179.644C220.842 179.462 218.07 177.88 218.07 174.842C218.07 172.84 219.204 171.244 220.142 170.53C218.84 170.67 215.97 170.978 214.36 171.328L214.178 169.41ZM223.572 171.734C223.908 172.224 224.412 173.078 224.678 173.638L223.628 174.1C223.264 173.344 222.97 172.784 222.536 172.168L223.572 171.734ZM225.126 171.09C225.49 171.58 226.022 172.406 226.316 172.952L225.266 173.456C224.888 172.7 224.566 172.168 224.118 171.552L225.126 171.09ZM229.508 168.962C231.552 169.2 233.26 169.228 234.744 169.116C236.018 169.032 237.166 168.808 238.328 168.444L238.552 170.04C237.544 170.32 236.326 170.558 235.108 170.642C233.666 170.754 231.734 170.768 229.606 170.558L229.508 168.962ZM229.256 171.888C231.776 172.14 234.044 172.098 235.724 171.93C237.236 171.804 238.286 171.524 239.098 171.286L239.378 172.938C238.538 173.148 237.502 173.344 236.368 173.47C234.604 173.666 231.874 173.708 229.354 173.54L229.256 171.888ZM233.932 169.354C233.792 168.836 233.624 168.318 233.428 167.772L235.304 167.562C235.472 168.906 235.822 170.138 236.186 171.216C236.522 172.196 237.208 173.638 237.852 174.618C238.048 174.898 238.23 175.108 238.482 175.346L237.642 176.634C236.858 176.466 235.332 176.298 234.31 176.186L234.45 174.842C235.038 174.898 235.808 174.968 236.214 175.01C235.472 173.764 234.954 172.546 234.604 171.524C234.254 170.53 234.114 170.026 233.932 169.354ZM231.944 175.15C231.608 175.612 231.314 176.088 231.314 176.69C231.314 177.726 232.294 178.146 234.156 178.146C235.472 178.146 236.662 178.048 237.67 177.852L237.572 179.63C236.592 179.784 235.304 179.882 234.156 179.882C231.37 179.882 229.634 179.056 229.592 177.068C229.578 176.158 229.872 175.472 230.208 174.814L231.944 175.15ZM249.57 167.688C249.528 167.968 249.486 168.318 249.472 168.682C249.444 169.396 249.43 171.384 249.43 172.56C249.43 174.1 249.654 176.634 249.654 177.74C249.654 178.944 248.744 179.868 246.91 179.868C244.67 179.868 243.494 179.014 243.494 177.53C243.494 176.116 244.796 175.122 246.938 175.122C250.018 175.122 252.314 176.634 253.476 177.614L252.468 179.182C251.138 177.922 249.108 176.564 246.714 176.564C245.734 176.564 245.188 176.942 245.188 177.432C245.188 177.964 245.678 178.286 246.644 178.286C247.386 178.286 247.89 178.076 247.89 177.264C247.89 176.424 247.736 173.918 247.736 172.56C247.736 171.216 247.75 169.438 247.75 168.64C247.75 168.388 247.722 167.954 247.666 167.688H249.57ZM243.76 168.99C244.754 169.158 246.364 169.298 247.218 169.298C249.122 169.298 250.956 169.2 253 168.878L252.986 170.474C251.558 170.67 249.332 170.838 247.232 170.838C246.336 170.838 244.712 170.712 243.788 170.6L243.76 168.99ZM243.676 172.014C244.6 172.182 246.308 172.28 247.05 172.28C249.64 172.28 251.446 172.112 253.168 171.888L253.154 173.54C251.222 173.764 249.696 173.848 247.036 173.848C246.21 173.848 244.628 173.778 243.704 173.666L243.676 172.014ZM265.498 168.024C265.456 168.248 265.428 168.864 265.414 169.228C265.386 170.18 265.386 170.978 265.358 171.692C265.33 172.938 265.288 174.45 265.148 175.164C264.994 175.906 264.63 176.088 263.916 176.088C263.426 176.088 262.292 175.962 261.816 175.878L261.844 174.338C262.278 174.436 262.866 174.506 263.146 174.506C263.412 174.506 263.538 174.464 263.58 174.184C263.65 173.652 263.678 172.644 263.706 171.678C263.706 170.95 263.706 170.138 263.706 169.312C263.706 168.948 263.65 168.29 263.608 168.024H265.498ZM259.982 168.444C259.926 168.906 259.898 169.298 259.898 169.9C259.898 171.174 259.842 174.87 259.87 176.018C259.912 177.404 260.024 177.712 262.124 177.712C263.496 177.712 265.274 177.544 266.31 177.348L266.24 179.266C265.302 179.364 263.594 179.49 262.25 179.49C258.638 179.49 258.19 178.72 258.134 176.298C258.106 175.094 258.12 170.838 258.12 169.998C258.12 169.41 258.078 168.934 258.008 168.444H259.982ZM255.306 171.608C255.698 171.608 256.342 171.58 257.056 171.496C258.47 171.37 263.734 170.852 266.436 170.684C266.814 170.656 267.36 170.614 267.78 170.586V172.294C267.528 172.28 266.786 172.308 266.422 172.308C264.238 172.378 258.792 172.966 257.168 173.148C256.734 173.204 255.866 173.33 255.488 173.386L255.306 171.608ZM276.866 168.612C276.712 168.794 276.572 169.032 276.418 169.27C275.718 170.264 274.738 172.056 274.052 173.302C274.57 172.994 275.116 172.868 275.648 172.868C276.698 172.868 277.328 173.526 277.384 174.702C277.412 175.318 277.384 176.438 277.454 177.026C277.51 177.572 277.888 177.796 278.35 177.796C279.568 177.796 280.324 176.214 280.716 174.478L282.242 175.71C281.5 178.118 280.212 179.714 278.056 179.714C276.502 179.714 275.788 178.776 275.718 177.768C275.676 177.012 275.676 175.878 275.634 175.304C275.592 174.814 275.326 174.52 274.822 174.52C273.87 174.52 273.072 175.5 272.582 176.634C272.204 177.446 271.728 179.014 271.518 179.756L269.544 179.084C270.566 176.284 273.436 170.572 274.192 169.228C274.36 168.864 274.626 168.402 274.878 167.814L276.866 168.612Z" fill="#FF3300"/>
<path d="M46.8476 194.032C46.7636 194.2 46.7156 194.392 46.6676 194.632C46.4036 195.892 45.8276 197.824 44.8676 199.06C43.7756 200.464 42.3476 201.58 40.1516 202.264L39.3356 201.364C41.6636 200.788 43.0076 199.768 44.0156 198.484C44.8676 197.392 45.4196 195.724 45.5876 194.572C44.8916 194.572 40.1396 194.572 39.4436 194.572C38.9636 194.572 38.5556 194.596 38.2556 194.608V193.54C38.5796 193.588 39.0596 193.624 39.4556 193.624C40.1396 193.624 44.9276 193.624 45.4676 193.624C45.6476 193.624 45.8876 193.612 46.1156 193.564L46.8476 194.032ZM58.8956 195.94C58.8236 196.036 58.7156 196.18 58.6556 196.276C58.3076 196.84 57.2996 198.328 56.2076 199.072L55.4276 198.532C56.2796 198.028 57.1556 196.96 57.5036 196.372C56.8316 196.372 52.2236 196.372 51.7676 196.372C51.4076 196.372 50.9996 196.384 50.6396 196.42V195.424C50.9756 195.46 51.4076 195.496 51.7676 195.496C52.2236 195.496 57.1196 195.496 57.6956 195.496C57.8756 195.496 58.1996 195.472 58.3436 195.436L58.8956 195.94ZM54.8636 197.176C54.8276 199.744 54.5996 201.556 52.0556 202.948L51.2156 202.288C51.4676 202.192 51.7676 202.06 52.0436 201.88C53.6516 200.788 53.8796 199.468 53.8796 197.896C53.8796 197.656 53.8556 197.416 53.8196 197.176H54.8636ZM61.5476 197.668C63.6236 197.116 65.4476 196.264 66.7796 195.436C68.0396 194.644 69.2396 193.612 70.0676 192.604L70.8716 193.36C69.8396 194.428 68.5796 195.436 67.1756 196.312C65.8556 197.128 63.9476 198.004 62.0156 198.604L61.5476 197.668ZM66.5876 195.928L67.6196 195.616V201.1C67.6196 201.544 67.6436 202.144 67.7036 202.372H66.5156C66.5516 202.144 66.5876 201.544 66.5876 201.1V195.928ZM78.7916 201.748C78.8396 201.568 78.8756 201.316 78.8756 201.076C78.8756 200.524 78.8756 194.644 78.8756 193.888C78.8756 193.432 78.8156 193.096 78.8156 193H79.9196C79.9076 193.096 79.8596 193.444 79.8596 193.9C79.8596 194.644 79.8596 200.452 79.8596 200.812C80.9756 200.308 82.4516 199.216 83.3636 197.86L83.9396 198.688C82.8956 200.092 81.2396 201.316 79.8476 202.012C79.6436 202.108 79.5236 202.216 79.4276 202.276L78.7916 201.748ZM73.2956 201.7C74.3156 200.98 75.0236 199.912 75.3836 198.748C75.7436 197.644 75.7436 195.256 75.7436 193.912C75.7436 193.564 75.7196 193.3 75.6596 193.048H76.7636C76.7516 193.18 76.7036 193.552 76.7036 193.9C76.7036 195.232 76.6676 197.812 76.3436 199.012C75.9836 200.296 75.2156 201.46 74.2076 202.3L73.2956 201.7ZM93.1556 196.492C93.1556 199.684 92.4596 201.328 89.7236 202.564L88.9196 201.796C91.1036 200.968 92.1836 199.936 92.1836 196.564V193.648C92.1836 193.18 92.1476 192.784 92.1236 192.676H93.2156C93.2036 192.796 93.1556 193.18 93.1556 193.648V196.492ZM88.8236 192.748C88.8116 192.856 88.7756 193.204 88.7756 193.612V198.016C88.7756 198.46 88.8116 198.988 88.8236 199.096H87.7556C87.7676 198.988 87.8156 198.472 87.8156 198.016V193.612C87.8156 193.36 87.7916 193.024 87.7556 192.748H88.8236ZM85.3196 195.076C85.4276 195.088 86.0156 195.16 86.5196 195.16H94.4636C95.0036 195.16 95.3996 195.112 95.5676 195.088V196.108C95.4356 196.096 95.0036 196.072 94.4756 196.072H86.5196C85.9916 196.072 85.4516 196.108 85.3196 196.108V195.076ZM97.5476 197.668C99.6236 197.116 101.448 196.264 102.78 195.436C104.04 194.644 105.24 193.612 106.068 192.604L106.872 193.36C105.84 194.428 104.58 195.436 103.176 196.312C101.856 197.128 99.9476 198.004 98.0156 198.604L97.5476 197.668ZM102.588 195.928L103.62 195.616V201.1C103.62 201.544 103.644 202.144 103.704 202.372H102.516C102.552 202.144 102.588 201.544 102.588 201.1V195.928ZM117.224 192.244C117.536 192.676 117.98 193.408 118.208 193.888L117.56 194.176C117.32 193.684 116.912 192.976 116.588 192.508L117.224 192.244ZM118.592 191.824C118.904 192.256 119.372 193.012 119.6 193.456L118.952 193.744C118.688 193.216 118.292 192.544 117.956 192.088L118.592 191.824ZM117.5 194.188C117.428 194.284 117.272 194.548 117.212 194.716C116.732 195.892 115.82 197.572 114.824 198.688C113.48 200.176 111.764 201.616 109.868 202.48L109.1 201.676C111.044 200.92 112.808 199.492 114.044 198.112C114.86 197.188 115.736 195.772 116.048 194.776C115.616 194.776 111.776 194.776 111.368 194.776C110.936 194.776 110.288 194.824 110.156 194.836V193.744C110.312 193.768 110.996 193.828 111.368 193.828C111.836 193.828 115.544 193.828 116 193.828C116.384 193.828 116.708 193.78 116.9 193.72L117.5 194.188ZM114.98 198.052C116.276 199.132 117.872 200.812 118.688 201.82L117.86 202.54C116.996 201.4 115.592 199.864 114.296 198.736L114.98 198.052ZM124.928 194.908C125.612 194.98 126.26 195.016 126.968 195.016C128.408 195.016 129.884 194.908 131.096 194.656V195.58C129.824 195.796 128.36 195.892 126.956 195.892C126.26 195.892 125.636 195.868 124.94 195.82L124.928 194.908ZM129.128 192.76C129.092 193 129.068 193.252 129.056 193.48C129.032 193.924 129.02 194.776 129.02 195.484C129.02 197.332 129.2 199.204 129.2 200.44C129.2 201.424 128.744 202.384 127.124 202.384C125.516 202.384 124.64 201.736 124.64 200.656C124.64 199.648 125.528 198.856 127.112 198.856C129.128 198.856 130.532 199.876 131.54 200.788L131.024 201.58C129.764 200.404 128.552 199.588 127.028 199.588C126.128 199.588 125.504 199.984 125.504 200.56C125.504 201.184 126.092 201.508 126.968 201.508C127.976 201.508 128.264 201.004 128.264 200.2C128.264 199.336 128.108 197.092 128.108 195.508C128.108 194.68 128.096 193.924 128.096 193.504C128.096 193.288 128.084 192.976 128.048 192.76H129.128ZM123.212 192.844C123.14 193.036 123.044 193.432 122.996 193.648C122.756 194.764 122.396 197.14 122.396 198.484C122.396 199.072 122.432 199.576 122.516 200.164C122.708 199.612 123.008 198.88 123.212 198.388L123.704 198.772C123.404 199.612 122.96 200.836 122.84 201.424C122.804 201.592 122.78 201.832 122.792 201.964C122.804 202.084 122.816 202.264 122.828 202.384L121.976 202.456C121.748 201.592 121.52 200.272 121.52 198.652C121.52 196.888 121.928 194.596 122.072 193.612C122.12 193.324 122.144 193.012 122.156 192.748L123.212 192.844ZM136.124 193.273V202H135.067V194.381H135.016L132.885 195.795V194.722L135.067 193.273H136.124ZM138.787 193.273H140.049L143.015 200.517H143.117L146.083 193.273H147.344V202H146.355V195.369H146.27L143.543 202H142.588L139.861 195.369H139.776V202H138.787V193.273ZM149.463 202V193.273H152.514C153.122 193.273 153.624 193.378 154.018 193.588C154.413 193.795 154.707 194.075 154.901 194.428C155.094 194.777 155.19 195.165 155.19 195.591C155.19 195.966 155.124 196.276 154.99 196.52C154.859 196.764 154.686 196.957 154.47 197.099C154.257 197.241 154.026 197.347 153.776 197.415V197.5C154.043 197.517 154.311 197.611 154.581 197.781C154.851 197.952 155.077 198.196 155.259 198.514C155.44 198.832 155.531 199.222 155.531 199.682C155.531 200.119 155.432 200.513 155.233 200.862C155.034 201.212 154.72 201.489 154.291 201.693C153.862 201.898 153.304 202 152.616 202H149.463ZM150.52 201.062H152.616C153.307 201.062 153.797 200.929 154.087 200.662C154.379 200.392 154.526 200.065 154.526 199.682C154.526 199.386 154.45 199.114 154.3 198.864C154.149 198.611 153.935 198.409 153.656 198.259C153.378 198.105 153.048 198.028 152.668 198.028H150.52V201.062ZM150.52 197.108H152.48C152.798 197.108 153.085 197.045 153.341 196.92C153.599 196.795 153.804 196.619 153.955 196.392C154.108 196.165 154.185 195.898 154.185 195.591C154.185 195.207 154.051 194.882 153.784 194.615C153.517 194.345 153.094 194.21 152.514 194.21H150.52V197.108ZM160.579 193.816L161.383 193.42C162.187 194.296 162.955 195.484 163.303 196.3L162.439 196.768C162.127 195.94 161.347 194.704 160.579 193.816ZM156.631 200.728C157.855 200.248 159.775 199.432 161.575 198.64L161.779 199.516C160.111 200.284 158.287 201.088 156.955 201.664L156.631 200.728ZM163.831 199.144L164.527 198.556C165.667 199.684 167.155 201.244 167.863 202.228L167.095 202.936C166.423 201.94 164.983 200.32 163.831 199.144ZM165.499 192.544L166.471 192.64C165.859 198.184 164.455 201.244 160.255 202.996C160.123 202.804 159.763 202.408 159.535 202.216C163.687 200.704 164.959 197.764 165.499 192.544ZM158.095 192.58L159.019 192.544L159.223 200.476L158.299 200.512L158.095 192.58ZM168.871 192.808H179.551V193.72H168.871V192.808ZM173.491 193.528H174.439V202.948H173.491V193.528ZM174.019 196.372L174.607 195.676C176.047 196.372 177.943 197.464 178.903 198.184L178.267 199C177.343 198.256 175.471 197.116 174.019 196.372ZM185.671 193.9C186.979 194.128 189.415 194.08 190.603 193.9V194.872C189.319 195.016 186.991 195.016 185.683 194.872L185.671 193.9ZM186.139 198.796C186.031 199.228 185.971 199.564 185.971 199.888C185.971 200.44 186.355 200.98 187.999 200.98C189.067 200.98 190.003 200.884 190.963 200.656L190.987 201.664C190.243 201.82 189.235 201.916 187.987 201.916C185.983 201.916 185.083 201.244 185.083 200.116C185.083 199.72 185.143 199.288 185.275 198.712L186.139 198.796ZM183.391 192.976C183.319 193.18 183.223 193.564 183.175 193.78C182.947 194.896 182.575 197.032 182.575 198.388C182.575 198.964 182.611 199.468 182.683 200.056C182.887 199.516 183.163 198.796 183.367 198.304L183.871 198.7C183.571 199.552 183.127 200.812 183.019 201.388C182.983 201.556 182.959 201.784 182.959 201.928C182.971 202.048 182.983 202.216 182.995 202.348L182.143 202.408C181.903 201.556 181.699 200.176 181.699 198.544C181.699 196.78 182.095 194.728 182.239 193.732C182.275 193.456 182.311 193.156 182.323 192.892L183.391 192.976ZM196.291 192.652C196.231 193.048 196.195 193.468 196.171 193.864C196.123 195.22 196.027 198.064 196.027 199.852C196.027 201.172 196.855 201.628 197.995 201.628C200.191 201.628 201.439 200.404 202.303 199.156L202.975 199.972C202.159 201.112 200.599 202.612 197.971 202.612C196.243 202.612 195.055 201.904 195.055 199.936C195.055 198.16 195.175 195.124 195.175 193.864C195.175 193.42 195.139 193 195.067 192.652H196.291ZM204.856 194.032C205.312 194.02 205.696 193.996 205.936 193.972C206.716 193.888 208.972 193.672 211.192 193.48C212.5 193.372 213.616 193.3 214.42 193.276L214.432 194.236C213.736 194.224 212.692 194.248 212.08 194.416C210.364 194.968 209.32 196.804 209.32 198.22C209.32 200.56 211.516 201.304 213.46 201.388L213.124 202.372C210.892 202.288 208.372 201.112 208.372 198.424C208.372 196.552 209.512 195.028 210.616 194.38C209.32 194.512 206.272 194.812 204.964 195.088L204.856 194.032ZM223.932 193.156C223.668 193.348 223.296 193.672 223.104 193.84C222.276 194.56 220.548 195.916 219.66 196.66C218.94 197.284 218.928 197.464 219.708 198.112C220.8 199.012 222.924 200.716 224.196 202L223.344 202.78C223.092 202.492 222.804 202.204 222.516 201.904C221.664 201.04 219.852 199.48 218.724 198.556C217.596 197.608 217.728 197.092 218.808 196.18C219.72 195.424 221.544 193.984 222.348 193.168C222.588 192.928 222.9 192.58 223.032 192.364L223.932 193.156ZM232.428 192.736C232.356 193 232.26 193.456 232.212 193.684C232.044 194.548 231.792 195.916 231.456 197.104C231.024 198.808 230.22 201.292 229.584 202.6L228.528 202.252C229.26 201.016 230.1 198.568 230.544 196.876C230.844 195.772 231.156 194.272 231.24 193.636C231.288 193.3 231.312 192.892 231.288 192.64L232.428 192.736ZM229.776 194.74C231.096 194.74 232.86 194.536 234.348 194.152V195.1C232.86 195.436 231.048 195.628 229.752 195.628C229.224 195.628 228.804 195.616 228.36 195.58L228.336 194.656C228.9 194.728 229.332 194.74 229.776 194.74ZM233.568 196.396C234.192 196.336 234.984 196.288 235.764 196.288C236.46 196.288 237.192 196.312 237.84 196.384L237.816 197.296C237.192 197.224 236.496 197.164 235.788 197.164C235.032 197.164 234.3 197.2 233.568 197.284V196.396ZM233.808 199.312C233.712 199.696 233.64 200.08 233.64 200.392C233.64 200.956 233.964 201.508 235.668 201.508C236.448 201.508 237.276 201.412 238.02 201.268L237.984 202.24C237.336 202.324 236.532 202.408 235.656 202.408C233.772 202.408 232.74 201.82 232.74 200.632C232.74 200.176 232.812 199.732 232.92 199.216L233.808 199.312ZM236.532 193.108C236.844 193.528 237.276 194.272 237.528 194.752L236.88 195.04C236.64 194.56 236.22 193.828 235.896 193.372L236.532 193.108ZM237.864 192.616C238.188 193.06 238.644 193.804 238.872 194.26L238.224 194.548C237.972 194.02 237.564 193.348 237.228 192.892L237.864 192.616ZM245.76 193.504C245.688 193.24 245.58 192.88 245.46 192.556L246.492 192.436C246.6 193.132 246.912 194.164 247.188 194.944C247.56 195.976 248.172 197.092 248.688 197.788C248.844 198.028 249.024 198.232 249.204 198.424L248.724 199.108C248.148 198.964 246.684 198.832 245.82 198.772L245.892 197.98C246.564 198.04 247.452 198.112 247.884 198.16C247.38 197.392 246.72 196.204 246.324 195.112C246.06 194.428 245.892 193.876 245.76 193.504ZM241.368 194.44C243.372 194.668 245.268 194.68 246.636 194.536C247.584 194.428 248.772 194.212 249.708 193.888L249.816 194.836C248.964 195.076 247.824 195.268 246.948 195.376C245.424 195.556 243.516 195.568 241.392 195.388L241.368 194.44ZM243.228 198.256C242.868 198.844 242.652 199.36 242.652 199.924C242.652 201.076 243.696 201.568 245.484 201.592C246.696 201.592 247.74 201.472 248.568 201.292L248.532 202.252C247.776 202.384 246.768 202.516 245.424 202.504C243.144 202.492 241.704 201.676 241.704 200.044C241.704 199.372 241.944 198.748 242.292 198.04L243.228 198.256ZM254.16 193.636C254.1 193.912 254.064 194.488 254.052 194.8C254.04 195.544 254.052 196.648 254.136 197.632C254.34 199.636 254.916 200.968 255.78 200.968C256.392 200.968 256.956 199.732 257.268 198.532L258.024 199.384C257.292 201.412 256.572 202.108 255.756 202.108C254.616 202.108 253.536 200.98 253.2 197.872C253.092 196.84 253.068 195.376 253.068 194.68C253.068 194.404 253.068 193.888 252.996 193.612L254.16 193.636ZM260.4 193.96C261.48 195.352 262.344 197.908 262.524 199.936L261.552 200.32C261.348 198.16 260.616 195.688 259.476 194.284L260.4 193.96Z" fill="#FF3300"/>
</svg>
