<svg width="300" height="300" viewBox="0 0 300 300" fill="none" xmlns="http://www.w3.org/2000/svg">
<rect width="300" height="300" fill="white"/>
<path d="M120.833 166C119.278 166 117.917 165.417 116.75 164.25C115.583 163.083 115 161.722 115 160.167V101.833C115 100.278 115.583 98.9167 116.75 97.75C117.917 96.5833 119.278 96 120.833 96H179.167C180.722 96 182.083 96.5833 183.25 97.75C184.417 98.9167 185 100.278 185 101.833V160.167C185 161.722 184.417 163.083 183.25 164.25C182.083 165.417 180.722 166 179.167 166H120.833ZM120.833 160.167H179.167V101.833H120.833V160.167ZM126.278 150.736H173.819L159.528 131.681L146.694 148.306L137.653 135.958L126.278 150.736Z" fill="#F07748"/>
<path d="M76.6262 191.064L74.9782 190.04C74.6262 190.168 74.0822 190.232 73.5862 190.232C73.0902 190.232 69.7302 190.232 69.0262 190.232L68.2902 192.056H73.6822C73.4262 193.24 72.4982 195.16 71.4102 196.408C70.0022 197.992 68.2262 199.384 64.9622 200.376L66.8502 202.056C69.8582 200.872 71.7782 199.4 73.2982 197.544C74.7542 195.768 75.6662 193.64 76.0982 192.2C76.2262 191.8 76.4502 191.368 76.6262 191.064ZM71.4102 188.52L69.0582 187.752C68.9142 188.312 68.5782 189.048 68.3382 189.432C67.5542 190.808 66.1462 192.872 63.3462 194.584L65.1382 195.912C67.4422 194.344 69.3462 192.088 70.4342 190.152C70.6102 189.816 71.0262 189.08 71.4102 188.52ZM91.0742 188.584H88.6582C88.7222 189.032 88.7702 189.544 88.7702 190.2C88.7702 190.888 88.7702 192.424 88.7702 193.224C88.7702 195.72 88.5462 196.92 87.4582 198.12C86.4822 199.16 85.2022 199.768 83.6022 200.136L85.2822 201.912C86.4502 201.528 88.0982 200.76 89.1542 199.592C90.3542 198.28 91.0262 196.808 91.0262 193.352C91.0262 192.568 91.0262 191.016 91.0262 190.2C91.0262 189.544 91.0422 189.032 91.0742 188.584ZM83.6662 188.728H81.3462C81.3942 189.096 81.4102 189.656 81.4102 189.944C81.4102 190.648 81.4102 194.424 81.4102 195.336C81.4102 195.832 81.3622 196.456 81.3302 196.744H83.6662C83.6342 196.376 83.6022 195.752 83.6022 195.352C83.6022 194.456 83.6022 190.648 83.6022 189.944C83.6022 189.448 83.6342 189.096 83.6662 188.728ZM102.306 191.512L100.418 192.136C100.802 192.968 101.506 194.904 101.714 195.672L103.618 195.016C103.394 194.28 102.61 192.184 102.306 191.512ZM108.21 192.664L105.97 191.944C105.794 193.96 105.01 196.088 103.922 197.432C102.61 199.096 100.37 200.312 98.6262 200.792L100.306 202.504C102.178 201.784 104.162 200.456 105.65 198.52C106.738 197.128 107.426 195.464 107.842 193.848C107.938 193.528 108.034 193.192 108.21 192.664ZM98.5942 192.344L96.6742 193.048C97.0582 193.736 97.8742 195.88 98.1302 196.728L100.082 196.008C99.7782 195.112 98.9942 193.16 98.5942 192.344ZM124.626 191.064L122.978 190.04C122.626 190.168 122.082 190.232 121.586 190.232C121.09 190.232 117.73 190.232 117.026 190.232L116.29 192.056H121.682C121.426 193.24 120.498 195.16 119.41 196.408C118.002 197.992 116.226 199.384 112.962 200.376L114.85 202.056C117.858 200.872 119.778 199.4 121.298 197.544C122.754 195.768 123.666 193.64 124.098 192.2C124.226 191.8 124.45 191.368 124.626 191.064ZM119.41 188.52L117.058 187.752C116.914 188.312 116.578 189.048 116.338 189.432C115.554 190.808 114.146 192.872 111.346 194.584L113.138 195.912C115.442 194.344 117.346 192.088 118.434 190.152C118.61 189.816 119.026 189.08 119.41 188.52ZM132.178 188.312L129.602 188.296C129.73 188.92 129.794 189.688 129.794 190.456C129.794 191.832 129.65 196.024 129.65 198.168C129.65 200.904 131.33 202.056 133.954 202.056C137.602 202.056 139.874 199.928 140.914 198.392L139.458 196.616C138.29 198.36 136.626 199.88 133.986 199.88C132.738 199.88 131.778 199.352 131.778 197.736C131.778 195.752 131.89 192.184 131.97 190.456C132.002 189.816 132.082 188.984 132.178 188.312ZM142.894 190.008L143.102 192.2C144.958 191.784 148.222 191.448 149.726 191.288C148.638 192.104 147.342 193.912 147.342 196.216C147.342 199.688 150.51 201.496 153.87 201.704L154.606 199.512C151.902 199.368 149.438 198.424 149.438 195.784C149.438 193.896 150.894 191.816 152.814 191.304C153.678 191.112 155.054 191.096 155.918 191.096L155.902 189.032C154.766 189.08 153.022 189.176 151.374 189.32C148.43 189.576 145.806 189.8 144.462 189.928C144.158 189.96 143.518 189.992 142.894 190.008ZM160.11 199.688V201.496H171.342V199.688H160.11ZM158.558 188.376V190.168H172.974V188.376H158.558ZM159.054 191.224V202.44H160.91V191.224H159.054ZM170.606 191.224V202.424H172.478V191.224H170.606ZM164.718 188.888V192.168H166.67V188.888H164.718ZM164.878 192.184V198.152H166.526V192.184H164.878ZM163.502 195.832H167.918V197.192H163.502V195.832ZM163.502 193.016H167.918V194.36H163.502V193.016ZM161.918 191.448V198.76H169.566V191.448H161.918ZM181.118 187.416C180.51 188.616 179.422 190.024 177.902 191.096C178.35 191.32 178.974 191.8 179.294 192.184C180.894 190.872 182.046 189.32 182.91 187.752L181.118 187.416ZM181.614 188.392L180.51 189.784H185.182V188.392H181.614ZM180.798 191.944H186.862V193.16H180.798V191.944ZM179.07 190.632V194.44H188.702V190.632H179.07ZM182.878 191.208V193.752H184.59V191.208H182.878ZM183.166 193.288C182.062 194.344 180.046 195.256 178.222 195.784C178.542 196.072 179.038 196.712 179.262 197.032C181.118 196.344 183.294 195.176 184.606 193.864L183.166 193.288ZM181.214 195.448C183.742 197.208 183.79 199.944 183.102 200.568C182.894 200.824 182.638 200.872 182.302 200.872C181.982 200.872 181.566 200.856 181.102 200.792C181.39 201.272 181.518 201.976 181.534 202.424C181.934 202.456 182.35 202.456 182.67 202.456C183.374 202.424 183.87 202.296 184.366 201.8C185.678 200.68 185.646 196.824 182.478 194.68L181.214 195.448ZM182.862 195.72C181.87 196.6 179.854 197.608 178.318 198.04C178.638 198.36 178.99 198.888 179.182 199.256C180.766 198.616 182.798 197.448 183.918 196.44L182.862 195.72ZM183.646 197.352C182.462 198.584 180.014 199.928 178.062 200.536C178.43 200.872 178.83 201.464 179.054 201.88C181.038 201.08 183.502 199.56 184.846 198.2L183.646 197.352ZM187.982 194.76C187.406 195.4 186.414 196.264 185.71 196.744L186.798 197.784C187.518 197.336 188.494 196.6 189.262 195.912L187.982 194.76ZM185.726 193.608L184.174 193.88C184.83 197.384 185.998 200.28 188.238 201.816C188.51 201.336 189.07 200.648 189.47 200.312C187.422 199.096 186.27 196.504 185.726 193.608ZM184.606 188.392V188.696C184.35 189.304 183.79 190.216 183.294 190.76C183.598 191.016 184.094 191.56 184.334 191.896C185.054 191.192 185.902 190.072 186.478 189.096L185.358 188.28L185.006 188.392H184.606ZM177.102 187.448C176.414 189.784 175.23 192.136 173.934 193.64C174.238 194.152 174.702 195.24 174.862 195.72C176.494 193.8 177.966 190.76 178.878 187.96L177.102 187.448ZM175.838 191.832V202.424H177.662V190.104L177.614 190.072L175.838 191.832ZM197.534 188.168L195.422 187.992C195.374 188.808 195.166 189.784 194.846 190.648C194.174 192.408 192.942 194.136 190.894 196.024L192.606 197.304C193.15 196.6 193.598 196.024 194.078 195.544C194.686 194.968 195.694 194.44 196.574 194.44C197.246 194.44 197.886 194.776 197.886 195.8C197.902 196.664 197.87 198.024 197.806 198.776H199.726C199.71 197.768 199.662 196.024 199.662 195.16C199.662 193.672 198.654 192.888 197.326 192.888C196.782 192.888 195.934 193 195.502 193.192C195.95 192.552 196.414 191.64 196.75 190.856C197.198 189.704 197.406 188.76 197.534 188.168ZM191.502 189.656V191.512C192.382 191.592 193.55 191.624 194.206 191.624C196.158 191.624 199.374 191.48 201.63 191.16L201.646 189.304C199.326 189.72 196.43 189.832 194.318 189.832C193.502 189.832 192.318 189.768 191.502 189.656ZM204.174 194.2L203.39 192.328C202.782 192.632 202.222 192.888 201.598 193.16C200.638 193.608 199.63 193.992 198.158 194.76C196.238 195.72 193.95 197.032 193.95 199.256C193.95 201.32 195.822 201.944 198.318 201.944C199.838 201.944 201.79 201.8 202.862 201.656L202.926 199.592C201.518 199.88 199.726 200.056 198.366 200.056C196.814 200.056 196.046 199.816 196.046 198.936C196.046 198.056 196.83 197.368 198.286 196.616C199.79 195.848 201.23 195.272 202.27 194.872C202.814 194.664 203.678 194.344 204.174 194.2ZM209.79 193.656H206.334V195.432H207.998V199.544H209.79V193.656ZM209.79 198.808H208.19C207.518 199.4 206.75 200.008 206.11 200.456L207.022 202.296C207.774 201.576 208.414 200.968 209.022 200.328C209.982 201.576 211.294 202.056 213.246 202.136C215.246 202.216 218.798 202.184 220.846 202.088C220.926 201.56 221.214 200.712 221.422 200.296C219.15 200.472 215.214 200.52 213.23 200.44C211.582 200.36 210.414 199.896 209.79 198.808ZM206.238 188.744C207.054 189.56 208.014 190.728 208.382 191.496L210.014 190.424C209.582 189.64 208.59 188.552 207.742 187.784L206.238 188.744ZM210.766 193.96V195.352H220.574V193.96H210.766ZM210.286 196.424V197.848H221.07V196.424H210.286ZM212.894 193.112V197.112H214.702V193.112H212.894ZM216.558 193.112V197.112H218.382V193.112H216.558ZM211.198 189.784V191H215.15V187.912H210.494V189.112H213.534V189.784H211.198ZM210.718 189.784V191.352C210.718 192.632 211.118 193 212.542 193C212.846 193 213.918 193 214.222 193C215.198 193 215.63 192.696 215.79 191.608C215.358 191.528 214.75 191.32 214.462 191.112C214.398 191.64 214.334 191.736 214.014 191.736C213.774 191.736 212.958 191.736 212.782 191.736C212.366 191.736 212.302 191.672 212.302 191.336V189.784H210.718ZM216.462 189.784V191H220.446V187.912H215.694V189.112H218.814V189.784H216.462ZM215.982 189.784V191.336C215.982 192.632 216.382 193 217.822 193C218.126 193 219.246 193 219.55 193C220.542 193 220.974 192.696 221.134 191.592C220.702 191.496 220.094 191.304 219.806 191.096C219.742 191.64 219.678 191.736 219.342 191.736C219.102 191.736 218.254 191.736 218.062 191.736C217.646 191.736 217.566 191.672 217.566 191.336V189.784H215.982ZM216.286 198.52C217.342 199.064 218.478 199.784 219.07 200.296L221.054 199.576C220.254 199.032 218.846 198.264 217.694 197.736L216.286 198.52ZM213.486 197.736C212.798 198.28 211.614 198.792 210.494 199.128C210.894 199.384 211.582 199.96 211.886 200.28C212.99 199.832 214.334 199.096 215.166 198.328L213.486 197.736ZM228.926 188.296V193.752C228.926 196.104 228.766 199.128 226.814 201.144C227.214 201.384 227.998 202.072 228.302 202.456C230.494 200.216 230.846 196.408 230.846 193.768V188.296H228.926ZM233.838 194.616L231.998 194.92C232.654 198.408 233.774 201.096 236.222 202.488C236.51 201.96 237.102 201.176 237.55 200.792C235.438 199.752 234.35 197.384 233.838 194.616ZM229.63 188.296V190.104H234.83V193.432H229.63V195.24H236.75V188.296H229.63ZM222.382 190.488V192.28H228.286V190.488H222.382ZM224.51 187.416V200.344C224.51 200.584 224.414 200.664 224.174 200.68C223.934 200.68 223.182 200.696 222.462 200.664C222.686 201.144 222.942 201.928 223.006 202.424C224.238 202.424 225.038 202.376 225.598 202.072C226.158 201.784 226.35 201.304 226.35 200.344V187.416H224.51ZM222.142 195.528L222.558 197.368C224.222 197.016 226.398 196.568 228.414 196.12L228.254 194.36C226.062 194.808 223.71 195.272 222.142 195.528Z" fill="#F07748"/>
</svg>
